0
SECTION
2
HEADER
9
$INSUNITS
70
4
9
$ACADVER
1
AC1014
9
$HANDSEED
5
FFFF
0
ENDSEC
0
SECTION
2
TABLES
0
TABLE
2
VPORT
5
8
100
AcDbSymbolTable
0
ENDTAB
0
TABLE
2
LTYPE
5
5
100
AcDbSymbolTable
0
LTYPE
5
14
100
AcDbSymbolTableRecord
100
AcDbLinetypeTableRecord
2
BYBLOCK
70
0
0
LTYPE
5
15
100
AcDbSymbolTableRecord
100
AcDbLinetypeTableRecord
2
BYLAYER
70
0
0
LTYPE
5
16
100
AcDbSymbolTableRecord
100
AcDbLinetypeTableRecord
2
DASHED
70
0
3
Dashed __ __ __ __ __ __ __ __ __ __ __ __ __ _
72
65
73
2
40
0.75
49
0.5
74
0
49
-0.25
74
0
0
ENDTAB
0
TABLE
2
LAYER
5
2
100
AcDbSymbolTable
70
2
0
LAYER
5
50
100
AcDbSymbolTableRecord
100
AcDbLayerTableRecord
2
0
70
0
62
7
6
CONTINUOUS
0
ENDTAB
0
TABLE
2
STYLE
5
3
100
AcDbSymbolTable
70
1
0
STYLE
5
11
100
AcDbSymbolTableRecord
100
AcDbTextStyleTableRecord
2
STANDARD
70
0
0
ENDTAB
0
TABLE
2
VIEW
5
6
100
AcDbSymbolTable
70
0
0
ENDTAB
0
TABLE
2
UCS
5
7
100
AcDbSymbolTable
70
0
0
ENDTAB
0
TABLE
2
APPID
5
9
100
AcDbSymbolTable
70
2
0
APPID
5
12
100
AcDbSymbolTableRecord
100
AcDbRegAppTableRecord
2
ACAD
70
0
0
ENDTAB
0
TABLE
2
DIMSTYLE
5
A
100
AcDbSymbolTable
70
1
0
ENDTAB
0
TABLE
2
BLOCK_RECORD
5
1
100
AcDbSymbolTable
70
1
0
BLOCK_RECORD
5
1F
100
AcDbSymbolTableRecord
100
AcDbBlockTableRecord
2
*MODEL_SPACE
0
BLOCK_RECORD
5
1B
100
AcDbSymbolTableRecord
100
AcDbBlockTableRecord
2
*PAPER_SPACE
0
ENDTAB
0
ENDSEC
0
SECTION
2
BLOCKS
0
BLOCK
5
20
100
AcDbEntity
100
AcDbBlockBegin
2
*MODEL_SPACE
0
ENDBLK
5
21
100
AcDbEntity
100
AcDbBlockEnd
0
BLOCK
5
1C
100
AcDbEntity
100
AcDbBlockBegin
2
*PAPER_SPACE
0
ENDBLK
5
1D
100
AcDbEntity
100
AcDbBlockEnd
0
ENDSEC
0
SECTION
2
ENTITIES
0
POINT
5
100
100
AcDbEntity
8
0
100
AcDbPoint
10
0
20
0
30
0
0
POINT
5
101
100
AcDbEntity
8
0
100
AcDbPoint
10
0
20
0
30
0
0
POINT
5
102
100
AcDbEntity
8
0
100
AcDbPoint
10
62.420000000000009
20
0
30
0
0
LWPOLYLINE
5
103
100
AcDbEntity
8
0
100
AcDbPolyline
90
4
70
1
43
0.0
10
210
20
148.49999999999997
10
-210
20
148.49999999999997
10
-210
20
-148.49999999999997
10
210
20
-148.49999999999997
0
LINE
5
104
100
AcDbEntity
8
0
100
AcDbLine
10
0
20
-148.49999999999997
30
0
11
0
21
-144.26862353503529
31
0
0
LINE
5
105
100
AcDbEntity
8
0
100
AcDbLine
10
0
20
-144.26862353503529
30
0
11
0
21
148.49999999999997
31
0
6
DASHED
0
LINE
5
106
100
AcDbEntity
8
0
100
AcDbLine
10
0
20
0
30
0
11
62.420000000000009
21
0
31
0
6
DASHED
0
LINE
5
107
100
AcDbEntity
8
0
100
AcDbLine
10
62.420000000000009
20
0
30
0
11
85.88000000000001
21
0
31
0
6
DASHED
0
LINE
5
108
100
AcDbEntity
8
0
100
AcDbLine
10
85.88000000000001
20
0
30
0
11
109.34
21
0
31
0
6
DASHED
0
LINE
5
109
100
AcDbEntity
8
0
100
AcDbLine
10
109.34
20
0
30
0
11
132.80000000000001
21
0
31
0
6
DASHED
0
LINE
5
110
100
AcDbEntity
8
0
100
AcDbLine
10
132.80000000000001
20
0
30
0
11
156.26000000000005
21
0
31
0
6
DASHED
0
LINE
5
111
100
AcDbEntity
8
0
100
AcDbLine
10
156.26000000000005
20
0
30
0
11
179.72000000000008
21
0
31
0
6
DASHED
0
LINE
5
112
100
AcDbEntity
8
0
100
AcDbLine
10
179.72000000000008
20
0
30
0
11
203.18000000000009
21
0
31
0
6
DASHED
0
LINE
5
113
100
AcDbEntity
8
0
100
AcDbLine
10
62.420000000000009
20
99.23601216884343
30
0
11
62.420000000000009
21
-99.23601216884343
31
0
0
LWPOLYLINE
5
114
100
AcDbEntity
8
0
100
AcDbPolyline
90
24
70
1
43
0.0
10
62.420000000000009
20
99.23601216884343
10
85.88000000000001
20
99.23601216884343
10
85.88000000000001
20
-99.23601216884343
10
109.5959414040564
20
-99.23601216884343
10
109.5959414040564
20
99.23601216884343
10
132.80000000000001
20
99.23601216884343
10
132.80000000000001
20
-99.23601216884343
10
156.26000000000005
20
-99.23601216884343
10
156.26000000000005
20
99.23601216884343
10
179.72000000000008
20
99.23601216884343
10
179.72000000000008
20
-99.23601216884343
10
203.18000000000009
20
-99.23601216884343
10
203.18000000000009
20
99.23601216884343
10
179.72000000000008
20
99.23601216884343
10
179.72000000000008
20
-99.23601216884343
10
156.26000000000005
20
-99.23601216884343
10
156.26000000000005
20
99.23601216884343
10
132.80000000000001
20
99.23601216884343
10
132.80000000000001
20
-99.23601216884343
10
109.5959414040564
20
-99.23601216884343
10
109.5959414040564
20
99.23601216884343
10
85.88000000000001
20
99.23601216884343
10
85.88000000000001
20
-99.23601216884343
10
62.420000000000009
20
-99.23601216884343
0
LINE
5
115
100
AcDbEntity
8
0
100
AcDbLine
10
55.246238614786151
20
-28.58139854279198
30
0
11
210
21
-28.58139854279198
31
0
6
DASHED
0
LINE
5
116
100
AcDbEntity
8
0
100
AcDbLine
10
210
20
-28.58139854279198
30
0
11
210
21
-6.4533052643033884
31
0
6
DASHED
0
LINE
5
117
100
AcDbEntity
8
0
100
AcDbLine
10
210
20
-6.4533052643033884
30
0
11
55.246238614786151
21
-6.4533052643033884
31
0
6
DASHED
0
LINE
5
118
100
AcDbEntity
8
0
100
AcDbLine
10
55.246238614786151
20
-6.4533052643033884
30
0
11
55.246238614786151
21
-28.58139854279198
31
0
6
DASHED
0
LINE
5
119
100
AcDbEntity
8
0
100
AcDbLine
10
49.579999999999998
20
-86.09999999999998
30
0
11
128.35000000000002
21
124.59999999999997
31
0
0
LINE
5
120
100
AcDbEntity
8
0
100
AcDbLine
10
128.35000000000002
20
124.59999999999997
30
0
11
151.81000000000003
21
124.59999999999997
31
0
6
DASHED
0
LINE
5
121
100
AcDbEntity
8
0
100
AcDbLine
10
119.96000000000012
20
-86.099999999999767
30
0
11
198.73000000000002
21
124.59999999999997
31
0
0
LINE
5
122
100
AcDbEntity
8
0
100
AcDbLine
10
96.499999999999986
20
-86.09999999999998
30
0
11
175.27000000000001
21
124.59999999999997
31
0
0
LINE
5
123
100
AcDbEntity
8
0
100
AcDbLine
10
73.040000000000006
20
-86.09999999999998
30
0
11
151.81000000000003
21
124.59999999999997
31
0
0
LINE
5
124
100
AcDbEntity
8
0
100
AcDbLine
10
151.81000000000003
20
124.59999999999997
30
0
11
175.27000000000001
21
124.59999999999997
31
0
6
DASHED
0
LINE
5
125
100
AcDbEntity
8
0
100
AcDbLine
10
175.27000000000001
20
124.59999999999997
30
0
11
198.73000000000002
21
124.59999999999997
31
0
6
DASHED
0
LINE
5
126
100
AcDbEntity
8
0
100
AcDbLine
10
112.70163870630032
20
117.38637466267738
30
0
11
267.45540009151375
21
117.38637466267733
31
0
6
DASHED
0
LINE
5
127
100
AcDbEntity
8
0
100
AcDbLine
10
267.45540009151375
20
117.38637466267733
30
0
11
267.45540009151375
21
139.51446794116586
31
0
6
DASHED
0
LINE
5
128
100
AcDbEntity
8
0
100
AcDbLine
10
267.45540009151375
20
139.51446794116586
30
0
11
112.70163870630032
21
139.51446794116592
31
0
6
DASHED
0
LINE
5
129
100
AcDbEntity
8
0
100
AcDbLine
10
112.70163870630032
20
139.51446794116592
30
0
11
112.70163870630032
21
117.38637466267738
31
0
6
DASHED
0
LINE
5
130
100
AcDbEntity
8
0
100
AcDbLine
10
49.579999999999998
20
-86.09999999999998
30
0
11
128.35000000000002
21
124.59999999999997
31
0
0
LINE
5
131
100
AcDbEntity
8
0
100
AcDbLine
10
73.040000000000006
20
-86.09999999999998
30
0
11
151.81000000000003
21
124.59999999999997
31
0
0
LINE
5
132
100
AcDbEntity
8
0
100
AcDbLine
10
96.499999999999986
20
-86.09999999999998
30
0
11
175.27000000000001
21
124.59999999999997
31
0
0
LINE
5
133
100
AcDbEntity
8
0
100
AcDbLine
10
119.96000000000012
20
-86.099999999999767
30
0
11
198.73000000000002
21
124.59999999999997
31
0
0
LINE
5
134
100
AcDbEntity
8
0
100
AcDbLine
10
0
20
106.71159708663538
30
0
11
4.8730674770031346
21
106.71159708663538
31
0
6
DASHED
0
LINE
5
135
100
AcDbEntity
8
0
100
AcDbLine
10
55.323067477003114
20
148.49999999999997
30
0
11
55.323067477003114
21
144.0672606504952
31
0
6
DASHED
0
LINE
5
136
100
AcDbEntity
8
0
100
AcDbLine
10
55.587213203339758
20
88.747891284645959
30
0
11
55.583319528216578
21
86.885654983860334
31
0
6
DASHED
0
LINE
5
137
100
AcDbEntity
8
0
100
AcDbLine
10
55.583319528216578
20
86.885654983860334
30
0
11
150.92000000000002
21
-116.79997111429839
31
0
0
LINE
5
138
100
AcDbEntity
8
0
100
AcDbLine
10
150.92000000000002
20
-116.79997111429839
30
0
11
174.38000000000002
21
-116.79997111429839
31
0
6
DASHED
0
LINE
5
139
100
AcDbEntity
8
0
100
AcDbLine
10
174.38000000000002
20
-116.79997111429839
30
0
11
197.84000000000003
21
-116.79997111429839
31
0
6
DASHED
0
LINE
5
140
100
AcDbEntity
8
0
100
AcDbLine
10
150.92000000000002
20
-116.79997111429839
30
0
11
127.46000000000001
21
-116.79997111429839
31
0
6
DASHED
0
LINE
5
141
100
AcDbEntity
8
0
100
AcDbLine
10
104.38838864651089
20
86.694917209826826
30
0
11
197.84000000000003
21
-116.79997111429839
31
0
0
LINE
5
142
100
AcDbEntity
8
0
100
AcDbLine
10
80.798246887832647
20
86.637482055851251
30
0
11
174.38000000000002
21
-116.79997111429839
31
0
0
LINE
5
143
100
AcDbEntity
8
0
100
AcDbLine
10
33.606609978960819
20
86.517589190899855
30
0
11
127.46000000000001
21
-116.79997111429839
31
0
0
LINE
5
144
100
AcDbEntity
8
0
100
AcDbLine
10
0
20
-116.79997111429839
30
0
11
127.46000000000001
21
-116.79997111429839
31
0
6
DASHED
0
LINE
5
145
100
AcDbEntity
8
0
100
AcDbLine
10
114.64269952020273
20
-143.88041088860172
30
0
11
269.39646090541578
21
-143.8804108886016
31
0
6
DASHED
0
LINE
5
146
100
AcDbEntity
8
0
100
AcDbLine
10
269.39646090541578
20
-143.8804108886016
30
0
11
269.39646090541578
21
-121.75231761011311
31
0
6
DASHED
0
LINE
5
147
100
AcDbEntity
8
0
100
AcDbLine
10
269.39646090541578
20
-121.75231761011311
30
0
11
114.64269952020271
21
-121.75231761011321
31
0
6
DASHED
0
LINE
5
148
100
AcDbEntity
8
0
100
AcDbLine
10
114.64269952020271
20
-121.75231761011321
30
0
11
114.64269952020273
21
-143.88041088860172
31
0
6
DASHED
0
LINE
5
149
100
AcDbEntity
8
0
100
AcDbLine
10
58.929731454122546
20
-16.453305264303388
30
0
11
57.701900209653857
21
-16.453305264303388
31
0
0
LINE
5
150
100
AcDbEntity
8
0
100
AcDbLine
10
57.701900209653857
20
-16.453305264303388
30
0
11
57.701900209653857
21
-8.6292944153043649
31
0
0
SPLINE
5
151
100
AcDbEntity
8
0
100
AcDbSpline
70
0
71
2
72
6
73
3
74
0
42
0.000000001
43
0.0000000001
44
0.0000000001
40
0
40
0
40
0
40
1
40
1
40
1
10
57.701900209653857
20
-8.6292944153043649
30
0
10
57.258517052400592
20
-9.0522138078901193
30
0
10
56.535461153257373
20
-9.4751332004758737
30
0
0
SPLINE
5
152
100
AcDbEntity
8
0
100
AcDbSpline
70
0
71
2
72
6
73
3
74
0
42
0.000000001
43
0.0000000001
44
0.0000000001
40
0
40
0
40
0
40
1
40
1
40
1
10
56.535461153257373
20
-9.4751332004758737
30
0
10
55.819226409662249
20
-9.8980525930616281
30
0
10
55.246238614786151
20
-10.109512587377729
30
0
0
LINE
5
153
100
AcDbEntity
8
0
100
AcDbLine
10
55.246238614786151
20
-10.109512587377729
30
0
11
55.246238614786151
21
-8.9226094682905099
31
0
0
SPLINE
5
154
100
AcDbEntity
8
0
100
AcDbSpline
70
0
71
2
72
6
73
3
74
0
42
0.000000001
43
0.0000000001
44
0.0000000001
40
0
40
0
40
0
40
1
40
1
40
1
10
55.246238614786151
20
-8.9226094682905099
30
0
10
56.27625217603493
20
-8.4382984836789987
30
0
10
57.047057058084491
20
-7.7493486602994821
30
0
0
SPLINE
5
155
100
AcDbEntity
8
0
100
AcDbSpline
70
0
71
2
72
6
73
3
74
0
42
0.000000001
43
0.0000000001
44
0.0000000001
40
0
40
0
40
0
40
1
40
1
40
1
10
57.047057058084491
20
-7.7493486602994821
30
0
10
57.817862238157275
20
-7.0603994329664133
30
0
10
58.138462509382251
20
-6.4123771389219186
30
0
0
LINE
5
156
100
AcDbEntity
8
0
100
AcDbLine
10
58.138462509382251
20
-6.4123771389219186
30
0
11
58.929731454122546
21
-6.4123771389219186
31
0
0
LINE
5
157
100
AcDbEntity
8
0
100
AcDbLine
10
58.929731454122546
20
-6.4123771389219186
30
0
11
58.929731454122546
21
-16.453305264303388
31
0
0
LINE
5
158
100
AcDbEntity
8
0
100
AcDbLine
10
84.052515234220508
20
-15.273223896810713
30
0
11
84.052515234220508
21
-16.453305264303388
31
0
0
LINE
5
159
100
AcDbEntity
8
0
100
AcDbLine
10
84.052515234220508
20
-16.453305264303388
30
0
11
77.442691530454638
21
-16.453305264303388
31
0
0
SPLINE
5
160
100
AcDbEntity
8
0
100
AcDbSpline
70
0
71
2
72
6
73
3
74
0
42
0.000000001
43
0.0000000001
44
0.0000000001
40
0
40
0
40
0
40
1
40
1
40
1
10
77.442691530454638
20
-16.453305264303388
30
0
10
77.429049219358447
20
-16.009921809026899
30
0
10
77.585938181150439
20
-15.600645323583784
30
0
0
SPLINE
5
161
100
AcDbEntity
8
0
100
AcDbSpline
70
0
71
2
72
6
73
3
74
0
42
0.000000001
43
0.0000000001
44
0.0000000001
40
0
40
0
40
0
40
1
40
1
40
1
10
77.585938181150439
20
-15.600645323583784
30
0
10
77.838325704801562
20
-14.925337811300459
30
0
10
78.390848840940478
20
-14.270494957754316
30
0
0
SPLINE
5
162
100
AcDbEntity
8
0
100
AcDbSpline
70
0
71
2
72
6
73
3
74
0
42
0.000000001
43
0.0000000001
44
0.0000000001
40
0
40
0
40
0
40
1
40
1
40
1
10
78.390848840940478
20
-14.270494957754316
30
0
10
78.950195516813281
20
-13.615652104208174
30
0
10
80.000672544706347
20
-12.756169815847578
30
0
0
SPLINE
5
163
100
AcDbEntity
8
0
100
AcDbSpline
70
0
71
2
72
6
73
3
74
0
42
0.000000001
43
0.0000000001
44
0.0000000001
40
0
40
0
40
0
40
1
40
1
40
1
10
80.000672544706347
20
-12.756169815847578
30
0
10
81.630959715116504
20
-11.419198890516462
30
0
10
82.203946317899707
20
-10.641572852918806
30
0
0
SPLINE
5
164
100
AcDbEntity
8
0
100
AcDbSpline
70
0
71
2
72
6
73
3
74
0
42
0.000000001
43
0.0000000001
44
0.0000000001
40
0
40
0
40
0
40
1
40
1
40
1
10
82.203946317899707
20
-10.641572852918806
30
0
10
82.776935304868701
20
-9.8571250637266061
30
0
10
82.776935304868701
20
-9.1613540847989938
30
0
0
SPLINE
5
165
100
AcDbEntity
8
0
100
AcDbSpline
70
0
71
2
72
6
73
3
74
0
42
0.000000001
43
0.0000000001
44
0.0000000001
40
0
40
0
40
0
40
1
40
1
40
1
10
82.776935304868701
20
-9.1613540847989938
30
0
10
82.776935304868701
20
-8.431477328130903
30
0
10
82.251694406736377
20
-7.9335234363767526
30
0
0
SPLINE
5
166
100
AcDbEntity
8
0
100
AcDbSpline
70
0
71
2
72
6
73
3
74
0
42
0.000000001
43
0.0000000001
44
0.0000000001
40
0
40
0
40
0
40
1
40
1
40
1
10
82.251694406736377
20
-7.9335234363767526
30
0
10
81.733277048337939
20
-7.4287483890745065
30
0
10
80.894260610807422
20
-7.4287483890745065
30
0
0
SPLINE
5
167
100
AcDbEntity
8
0
100
AcDbSpline
70
0
71
2
72
6
73
3
74
0
42
0.000000001
43
0.0000000001
44
0.0000000001
40
0
40
0
40
0
40
1
40
1
40
1
10
80.894260610807422
20
-7.4287483890745065
30
0
10
80.007493700254443
20
-7.4287483890745065
30
0
10
79.475434030759814
20
-7.9608086546155832
30
0
0
SPLINE
5
168
100
AcDbEntity
8
0
100
AcDbSpline
70
0
71
2
72
6
73
3
74
0
42
0.000000001
43
0.0000000001
44
0.0000000001
40
0
40
0
40
0
40
1
40
1
40
1
10
79.475434030759814
20
-7.9608086546155832
30
0
10
78.943374361265185
20
-8.4928689201566598
30
0
10
78.93655320571709
20
-9.4342056711408517
30
0
0
LINE
5
169
100
AcDbEntity
8
0
100
AcDbLine
10
78.93655320571709
20
-9.4342056711408517
30
0
11
77.674615587461474
21
-9.3046013315412424
31
0
0
SPLINE
5
170
100
AcDbEntity
8
0
100
AcDbSpline
70
0
71
2
72
6
73
3
74
0
42
0.000000001
43
0.0000000001
44
0.0000000001
40
0
40
0
40
0
40
1
40
1
40
1
10
77.674615587461474
20
-9.3046013315412424
30
0
10
77.804219927061084
20
-7.8925959070417306
30
0
10
78.650057520139697
20
-7.1558973987790964
30
0
0
SPLINE
5
171
100
AcDbEntity
8
0
100
AcDbSpline
70
0
71
2
72
6
73
3
74
0
42
0.000000001
43
0.0000000001
44
0.0000000001
40
0
40
0
40
0
40
1
40
1
40
1
10
78.650057520139697
20
-7.1558973987790964
30
0
10
79.495897497404101
20
-6.4123771389219186
30
0
10
80.921545232999804
20
-6.4123771389219186
30
0
0
SPLINE
5
172
100
AcDbEntity
8
0
100
AcDbSpline
70
0
71
2
72
6
73
3
74
0
42
0.000000001
43
0.0000000001
44
0.0000000001
40
0
40
0
40
0
40
1
40
1
40
1
10
80.921545232999804
20
-6.4123771389219186
30
0
10
82.36083766387749
20
-6.4123771389219186
30
0
10
83.199854101408008
20
-7.2104678352567575
30
0
0
SPLINE
5
173
100
AcDbEntity
8
0
100
AcDbSpline
70
0
71
2
72
6
73
3
74
0
42
0.000000001
43
0.0000000001
44
0.0000000001
40
0
40
0
40
0
40
1
40
1
40
1
10
83.199854101408008
20
-7.2104678352567575
30
0
10
84.038870538938525
20
-8.0085573394987009
30
0
10
84.038870538938525
20
-9.1886393030378244
30
0
0
SPLINE
5
174
100
AcDbEntity
8
0
100
AcDbSpline
70
0
71
2
72
6
73
3
74
0
42
0.000000001
43
0.0000000001
44
0.0000000001
40
0
40
0
40
0
40
1
40
1
40
1
10
84.038870538938525
20
-9.1886393030378244
30
0
10
84.038870538938525
20
-9.7889123161527536
30
0
10
83.793304170835498
20
-10.368721266576948
30
0
0
SPLINE
5
175
100
AcDbEntity
8
0
100
AcDbSpline
70
0
71
2
72
6
73
3
74
0
42
0.000000001
43
0.0000000001
44
0.0000000001
40
0
40
0
40
0
40
1
40
1
40
1
10
83.793304170835498
20
-10.368721266576948
30
0
10
83.547740186918261
20
-10.948530217001142
30
0
10
82.974751199949267
20
-11.589730759451093
30
0
0
SPLINE
5
176
100
AcDbEntity
8
0
100
AcDbSpline
70
0
71
2
72
6
73
3
74
0
42
0.000000001
43
0.0000000001
44
0.0000000001
40
0
40
0
40
0
40
1
40
1
40
1
10
82.974751199949267
20
-11.589730759451093
30
0
10
82.40858575271416
20
-12.230931301901045
30
0
10
81.085255350339892
20
-13.349621673414411
30
0
0
SPLINE
5
177
100
AcDbEntity
8
0
100
AcDbSpline
70
0
71
2
72
6
73
3
74
0
42
0.000000001
43
0.0000000001
44
0.0000000001
40
0
40
0
40
0
40
1
40
1
40
1
10
81.085255350339892
20
-13.349621673414411
30
0
10
79.98020907806206
20
-14.277316113302412
30
0
10
79.666428770292285
20
-14.611558695623579
30
0
0
SPLINE
5
178
100
AcDbEntity
8
0
100
AcDbSpline
70
0
71
2
72
6
73
3
74
0
42
0.000000001
43
0.0000000001
44
0.0000000001
40
0
40
0
40
0
40
1
40
1
40
1
10
79.666428770292285
20
-14.611558695623579
30
0
10
79.3526508467083
20
-14.93898012239665
30
0
10
79.148011411893847
20
-15.273223896810713
30
0
0
LINE
5
179
100
AcDbEntity
8
0
100
AcDbLine
10
79.148011411893847
20
-15.273223896810713
30
0
11
84.052515234220508
21
-15.273223896810713
31
0
0
LINE
5
180
100
AcDbEntity
8
0
100
AcDbLine
10
100.9010817663555
20
-13.813469191381635
30
0
11
102.12891360687064
21
-13.649757881948652
31
0
0
SPLINE
5
181
100
AcDbEntity
8
0
100
AcDbSpline
70
0
71
2
72
6
73
3
74
0
42
0.000000001
43
0.0000000001
44
0.0000000001
40
0
40
0
40
0
40
1
40
1
40
1
10
102.12891360687064
20
-13.649757881948652
30
0
10
102.3403718130474
20
-14.693414946386518
30
0
10
102.84514686034964
20
-15.157261868307295
30
0
0
SPLINE
5
182
100
AcDbEntity
8
0
100
AcDbSpline
70
0
71
2
72
6
73
3
74
0
42
0.000000001
43
0.0000000001
44
0.0000000001
40
0
40
0
40
0
40
1
40
1
40
1
10
102.84514686034964
20
-15.157261868307295
30
0
10
103.35674544738578
20
-15.614287634679975
30
0
10
104.08662101196097
20
-15.614287634679975
30
0
0
SPLINE
5
183
100
AcDbEntity
8
0
100
AcDbSpline
70
0
71
2
72
6
73
3
74
0
42
0.000000001
43
0.0000000001
44
0.0000000001
40
0
40
0
40
0
40
1
40
1
40
1
10
104.08662101196097
20
-15.614287634679975
30
0
10
104.95292445586966
20
-15.614287634679975
30
0
10
105.54637690948294
20
-15.014015217611494
30
0
0
SPLINE
5
184
100
AcDbEntity
8
0
100
AcDbSpline
70
0
71
2
72
6
73
3
74
0
42
0.000000001
43
0.0000000001
44
0.0000000001
40
0
40
0
40
0
40
1
40
1
40
1
10
105.54637690948294
20
-15.014015217611494
30
0
10
106.14664813445853
20
-14.413741608450117
30
0
10
106.14664813445853
20
-13.526975293943586
30
0
0
SPLINE
5
185
100
AcDbEntity
8
0
100
AcDbSpline
70
0
71
2
72
6
73
3
74
0
42
0.000000001
43
0.0000000001
44
0.0000000001
40
0
40
0
40
0
40
1
40
1
40
1
10
106.14664813445853
20
-13.526975293943586
30
0
10
106.14664813445853
20
-12.68113591272563
30
0
10
105.59412261413382
20
-12.135433932134809
30
0
0
SPLINE
5
186
100
AcDbEntity
8
0
100
AcDbSpline
70
0
71
2
72
6
73
3
74
0
42
0.000000001
43
0.0000000001
44
0.0000000001
40
0
40
0
40
0
40
1
40
1
40
1
10
105.59412261413382
20
-12.135433932134809
30
0
10
105.0416018621807
20
-11.582909603902998
30
0
10
104.1889407293682
20
-11.582909603902998
30
0
0
SPLINE
5
187
100
AcDbEntity
8
0
100
AcDbSpline
70
0
71
2
72
6
73
3
74
0
42
0.000000001
43
0.0000000001
44
0.0000000001
40
0
40
0
40
0
40
1
40
1
40
1
10
104.1889407293682
20
-11.582909603902998
30
0
10
103.84105464385794
20
-11.582909603902998
30
0
10
103.32263728545951
20
-11.719335099050703
30
0
0
LINE
5
188
100
AcDbEntity
8
0
100
AcDbLine
10
103.32263728545951
20
-11.719335099050703
30
0
11
103.459065164793
21
-10.641572852918806
31
0
0
SPLINE
5
189
100
AcDbEntity
8
0
100
AcDbSpline
70
0
71
2
72
6
73
3
74
0
42
0.000000001
43
0.0000000001
44
0.0000000001
40
0
40
0
40
0
40
1
40
1
40
1
10
103.459065164793
20
-10.641572852918806
30
0
10
103.58184596465873
20
-10.655215760061445
30
0
10
103.65688105987357
20
-10.655215760061445
30
0
0
SPLINE
5
190
100
AcDbEntity
8
0
100
AcDbSpline
70
0
71
2
72
6
73
3
74
0
42
0.000000001
43
0.0000000001
44
0.0000000001
40
0
40
0
40
0
40
1
40
1
40
1
10
103.65688105987357
20
-10.655215760061445
30
0
10
104.44132586883353
20
-10.655215760061445
30
0
10
105.06888648437308
20
-10.245938678571882
30
0
0
SPLINE
5
191
100
AcDbEntity
8
0
100
AcDbSpline
70
0
71
2
72
6
73
3
74
0
42
0.000000001
43
0.0000000001
44
0.0000000001
40
0
40
0
40
0
40
1
40
1
40
1
10
105.06888648437308
20
-10.245938678571882
30
0
10
105.69644233154105
20
-9.836661597082319
30
0
10
105.69644233154105
20
-8.9840016563627145
30
0
0
SPLINE
5
192
100
AcDbEntity
8
0
100
AcDbSpline
70
0
71
2
72
6
73
3
74
0
42
0.000000001
43
0.0000000001
44
0.0000000001
40
0
40
0
40
0
40
1
40
1
40
1
10
105.69644233154105
20
-8.9840016563627145
30
0
10
105.69644233154105
20
-8.3086947401258371
30
0
10
105.23941775726126
20
-7.8653112848493478
30
0
0
SPLINE
5
193
100
AcDbEntity
8
0
100
AcDbSpline
70
0
71
2
72
6
73
3
74
0
42
0.000000001
43
0.0000000001
44
0.0000000001
40
0
40
0
40
0
40
1
40
1
40
1
10
105.23941775726126
20
-7.8653112848493478
30
0
10
104.78239318298148
20
-7.4219278295728586
30
0
10
104.05933638976859
20
-7.4219278295728586
30
0
0
SPLINE
5
194
100
AcDbEntity
8
0
100
AcDbSpline
70
0
71
2
72
6
73
3
74
0
42
0.000000001
43
0.0000000001
44
0.0000000001
40
0
40
0
40
0
40
1
40
1
40
1
10
104.05933638976859
20
-7.4219278295728586
30
0
10
103.34310313628959
20
-7.4219278295728586
30
0
10
102.86561271117972
20
-7.8721324403974435
30
0
0
SPLINE
5
195
100
AcDbEntity
8
0
100
AcDbSpline
70
0
71
2
72
6
73
3
74
0
42
0.000000001
43
0.0000000001
44
0.0000000001
40
0
40
0
40
0
40
1
40
1
40
1
10
102.86561271117972
20
-7.8721324403974435
30
0
10
102.38812228606986
20
-8.3223370512220285
30
0
10
102.25169440673636
20
-9.2227462728711984
30
0
0
LINE
5
196
100
AcDbEntity
8
0
100
AcDbLine
10
102.25169440673636
20
-9.2227462728711984
30
0
11
101.02386733459281
21
-9.0044651230070016
31
0
0
SPLINE
5
197
100
AcDbEntity
8
0
100
AcDbSpline
70
0
71
2
72
6
73
3
74
0
42
0.000000001
43
0.0000000001
44
0.0000000001
40
0
40
0
40
0
40
1
40
1
40
1
10
101.02386733459281
20
-9.0044651230070016
30
0
10
101.24896785186576
20
-7.7698133190366647
30
0
10
102.04705497192191
20
-7.0945064027997873
30
0
0
SPLINE
5
198
100
AcDbEntity
8
0
100
AcDbSpline
70
0
71
2
72
6
73
3
74
0
42
0.000000001
43
0.0000000001
44
0.0000000001
40
0
40
0
40
0
40
1
40
1
40
1
10
102.04705497192191
20
-7.0945064027997873
30
0
10
102.84514686034964
20
-6.4123783310148141
30
0
10
104.03205176757621
20
-6.4123783310148141
30
0
0
SPLINE
5
199
100
AcDbEntity
8
0
100
AcDbSpline
70
0
71
2
72
6
73
3
74
0
42
0.000000001
43
0.0000000001
44
0.0000000001
40
0
40
0
40
0
40
1
40
1
40
1
10
104.03205176757621
20
-6.4123783310148141
30
0
10
104.85060473846244
20
-6.4123783310148141
30
0
10
105.53955336974906
20
-6.767084976026716
30
0
0
SPLINE
5
200
100
AcDbEntity
8
0
100
AcDbSpline
70
0
71
2
72
6
73
3
74
0
42
0.000000001
43
0.0000000001
44
0.0000000001
40
0
40
0
40
0
40
1
40
1
40
1
10
105.53955336974906
20
-6.767084976026716
30
0
10
106.22850200103568
20
-7.1149704654905221
30
0
10
106.59003039764212
20
-7.722064634153547
30
0
0
SPLINE
5
201
100
AcDbEntity
8
0
100
AcDbSpline
70
0
71
2
72
6
73
3
74
0
42
0.000000001
43
0.0000000001
44
0.0000000001
40
0
40
0
40
0
40
1
40
1
40
1
10
106.59003039764212
20
-7.722064634153547
30
0
10
106.95838233398246
20
-8.3291582067701242
30
0
10
106.95838233398246
20
-9.0112868746015451
30
0
0
SPLINE
5
202
100
AcDbEntity
8
0
100
AcDbSpline
70
0
71
2
72
6
73
3
74
0
42
0.000000001
43
0.0000000001
44
0.0000000001
40
0
40
0
40
0
40
1
40
1
40
1
10
106.95838233398246
20
-9.0112868746015451
30
0
10
106.95838233398246
20
-9.659308572599592
30
0
10
106.6104962484722
20
-10.191368242094221
30
0
0
SPLINE
5
203
100
AcDbEntity
8
0
100
AcDbSpline
70
0
71
2
72
6
73
3
74
0
42
0.000000001
43
0.0000000001
44
0.0000000001
40
0
40
0
40
0
40
1
40
1
40
1
10
106.6104962484722
20
-10.191368242094221
30
0
10
106.26261016296195
20
-10.723428507635298
30
0
10
105.58048030303763
20
-11.037207623312177
30
0
0
SPLINE
5
204
100
AcDbEntity
8
0
100
AcDbSpline
70
0
71
2
72
6
73
3
74
0
42
0.000000001
43
0.0000000001
44
0.0000000001
40
0
40
0
40
0
40
1
40
1
40
1
10
105.58048030303763
20
-11.037207623312177
30
0
10
106.4672495977764
20
-11.241845866033735
30
0
10
106.95838233398246
20
-11.889867564031782
30
0
0
SPLINE
5
205
100
AcDbEntity
8
0
100
AcDbSpline
70
0
71
2
72
6
73
3
74
0
42
0.000000001
43
0.0000000001
44
0.0000000001
40
0
40
0
40
0
40
1
40
1
40
1
10
106.95838233398246
20
-11.889867564031782
30
0
10
107.44951507018851
20
-12.531068106481733
30
0
10
107.44951507018851
20
-13.499690075704756
30
0
0
SPLINE
5
206
100
AcDbEntity
8
0
100
AcDbSpline
70
0
71
2
72
6
73
3
74
0
42
0.000000001
43
0.0000000001
44
0.0000000001
40
0
40
0
40
0
40
1
40
1
40
1
10
107.44951507018851
20
-13.499690075704756
30
0
10
107.44951507018851
20
-14.809376974889936
30
0
10
106.49453421996878
20
-15.723428507635298
30
0
0
SPLINE
5
207
100
AcDbEntity
8
0
100
AcDbSpline
70
0
71
2
72
6
73
3
74
0
42
0.000000001
43
0.0000000001
44
0.0000000001
40
0
40
0
40
0
40
1
40
1
40
1
10
106.49453421996878
20
-15.723428507635298
30
0
10
105.53955336974906
20
-16.630658884832563
30
0
10
104.07979747222709
20
-16.630658884832563
30
0
0
SPLINE
5
208
100
AcDbEntity
8
0
100
AcDbSpline
70
0
71
2
72
6
73
3
74
0
42
0.000000001
43
0.0000000001
44
0.0000000001
40
0
40
0
40
0
40
1
40
1
40
1
10
104.07979747222709
20
-16.630658884832563
30
0
10
102.7632929937725
20
-16.630658884832563
30
0
10
101.89016601012992
20
-15.846211691686811
30
0
0
SPLINE
5
209
100
AcDbEntity
8
0
100
AcDbSpline
70
0
71
2
72
6
73
3
74
0
42
0.000000001
43
0.0000000001
44
0.0000000001
40
0
40
0
40
0
40
1
40
1
40
1
10
101.89016601012992
20
-15.846211691686811
30
0
10
101.02386733459281
20
-15.061763306448164
30
0
10
100.9010817663555
20
-13.813469191381635
30
0
0
LINE
5
210
100
AcDbEntity
8
0
100
AcDbLine
10
128.12481662200736
20
-16.453305264303388
30
0
11
128.12481662200736
21
-14.059035559484663
31
0
0
LINE
5
211
100
AcDbEntity
8
0
100
AcDbLine
10
128.12481662200736
20
-14.059035559484663
30
0
11
123.78648539947318
21
-14.059035559484663
31
0
0
LINE
5
212
100
AcDbEntity
8
0
100
AcDbLine
10
123.78648539947318
20
-14.059035559484663
30
0
11
123.78648539947318
21
-12.933523436376753
31
0
0
LINE
5
213
100
AcDbEntity
8
0
100
AcDbLine
10
123.78648539947318
20
-12.933523436376753
30
0
11
128.34992190765189
21
-6.4533052643033884
31
0
0
LINE
5
214
100
AcDbEntity
8
0
100
AcDbLine
10
128.34992190765189
20
-6.4533052643033884
30
0
11
129.3526484625225
21
-6.4533052643033884
31
0
0
LINE
5
215
100
AcDbEntity
8
0
100
AcDbLine
10
129.3526484625225
20
-6.4533052643033884
30
0
11
129.3526484625225
21
-12.933523436376753
31
0
0
LINE
5
216
100
AcDbEntity
8
0
100
AcDbLine
10
129.3526484625225
20
-12.933523436376753
30
0
11
130.70326110290335
21
-12.933523436376753
31
0
0
LINE
5
217
100
AcDbEntity
8
0
100
AcDbLine
10
130.70326110290335
20
-12.933523436376753
30
0
11
130.70326110290335
21
-14.059035559484663
31
0
0
LINE
5
218
100
AcDbEntity
8
0
100
AcDbLine
10
130.70326110290335
20
-14.059035559484663
30
0
11
129.3526484625225
21
-14.059035559484663
31
0
0
LINE
5
219
100
AcDbEntity
8
0
100
AcDbLine
10
129.3526484625225
20
-14.059035559484663
30
0
11
129.3526484625225
21
-16.453305264303388
31
0
0
LINE
5
220
100
AcDbEntity
8
0
100
AcDbLine
10
129.3526484625225
20
-16.453305264303388
30
0
11
128.12481662200736
21
-16.453305264303388
31
0
0
LINE
5
221
100
AcDbEntity
8
0
100
AcDbLine
10
128.12481662200736
20
-12.933523436376753
30
0
11
128.12481662200736
21
-8.4246555765363595
31
0
0
LINE
5
222
100
AcDbEntity
8
0
100
AcDbLine
10
128.12481662200736
20
-8.4246555765363595
30
0
11
124.99385138915824
21
-12.933523436376753
31
0
0
LINE
5
223
100
AcDbEntity
8
0
100
AcDbLine
10
124.99385138915824
20
-12.933523436376753
30
0
11
128.12481662200736
21
-12.933523436376753
31
0
0
LINE
5
224
100
AcDbEntity
8
0
100
AcDbLine
10
147.4836184637432
20
-13.833932658025923
30
0
11
148.77284308837699
21
-13.7247917850706
31
0
0
SPLINE
5
225
100
AcDbEntity
8
0
100
AcDbSpline
70
0
71
2
72
6
73
3
74
0
42
0.000000001
43
0.0000000001
44
0.0000000001
40
0
40
0
40
0
40
1
40
1
40
1
10
148.77284308837699
20
-13.7247917850706
30
0
10
148.91609450744437
20
-14.66612913210124
30
0
10
149.43451186584281
20
-15.143618365118208
30
0
0
SPLINE
5
226
100
AcDbEntity
8
0
100
AcDbSpline
70
0
71
2
72
6
73
3
74
0
42
0.000000001
43
0.0000000001
44
0.0000000001
40
0
40
0
40
0
40
1
40
1
40
1
10
149.43451186584281
20
-15.143618365118208
30
0
10
149.95974799560355
20
-15.614287634679975
30
0
10
150.69644233154105
20
-15.614287634679975
30
0
0
SPLINE
5
227
100
AcDbEntity
8
0
100
AcDbSpline
70
0
71
2
72
6
73
3
74
0
42
0.000000001
43
0.0000000001
44
0.0000000001
40
0
40
0
40
0
40
1
40
1
40
1
10
150.69644233154105
20
-15.614287634679975
30
0
10
151.5832163946514
20
-15.614287634679975
30
0
10
152.1971251623516
20
-14.945801277944746
30
0
0
SPLINE
5
228
100
AcDbEntity
8
0
100
AcDbSpline
70
0
71
2
72
6
73
3
74
0
42
0.000000001
43
0.0000000001
44
0.0000000001
40
0
40
0
40
0
40
1
40
1
40
1
10
152.1971251623516
20
-14.945801277944746
30
0
10
152.81104346679496
20
-14.277316113302412
30
0
10
152.81104346679496
20
-13.172268052885237
30
0
0
SPLINE
5
229
100
AcDbEntity
8
0
100
AcDbSpline
70
0
71
2
72
6
73
3
74
0
42
0.000000001
43
0.0000000001
44
0.0000000001
40
0
40
0
40
0
40
1
40
1
40
1
10
152.81104346679496
20
-13.172268052885237
30
0
10
152.81104346679496
20
-12.121790428945722
30
0
10
152.21759101318167
20
-11.514696856329145
30
0
0
SPLINE
5
230
100
AcDbEntity
8
0
100
AcDbSpline
70
0
71
2
72
6
73
3
74
0
42
0.000000001
43
0.0000000001
44
0.0000000001
40
0
40
0
40
0
40
1
40
1
40
1
10
152.21759101318167
20
-11.514696856329145
30
0
10
151.6309573309307
20
-10.907602091619673
30
0
10
150.67598601745414
20
-10.907602091619673
30
0
0
SPLINE
5
231
100
AcDbEntity
8
0
100
AcDbSpline
70
0
71
2
72
6
73
3
74
0
42
0.000000001
43
0.0000000001
44
0.0000000001
40
0
40
0
40
0
40
1
40
1
40
1
10
150.67598601745414
20
-10.907602091619673
30
0
10
150.08253356384085
20
-10.907602091619673
30
0
10
149.60503837035941
20
-11.180453081915083
30
0
0
SPLINE
5
232
100
AcDbEntity
8
0
100
AcDbSpline
70
0
71
2
72
6
73
3
74
0
42
0.000000001
43
0.0000000001
44
0.0000000001
40
0
40
0
40
0
40
1
40
1
40
1
10
149.60503837035941
20
-11.180453081915083
30
0
10
149.12755271362113
20
-11.446483512708845
30
0
10
148.85469695495414
20
-11.876224060842695
30
0
0
LINE
5
233
100
AcDbEntity
8
0
100
AcDbLine
10
148.85469695495414
20
-11.876224060842695
30
0
11
147.70190497802542
21
-11.726156254598799
31
0
0
LINE
5
234
100
AcDbEntity
8
0
100
AcDbLine
10
147.70190497802542
20
-11.726156254598799
30
0
11
148.67052337096976
21
-6.5897295673581979
31
0
0
LINE
5
235
100
AcDbEntity
8
0
100
AcDbLine
10
148.67052337096976
20
-6.5897295673581979
30
0
11
153.64323874877738
21
-6.5897295673581979
31
0
0
LINE
5
236
100
AcDbEntity
8
0
100
AcDbLine
10
153.64323874877738
20
-6.5897295673581979
30
0
11
153.64323874877738
21
-7.7629903753492258
31
0
0
LINE
5
237
100
AcDbEntity
8
0
100
AcDbLine
10
153.64323874877738
20
-7.7629903753492258
30
0
11
149.65278884338187
21
-7.7629903753492258
31
0
0
LINE
5
238
100
AcDbEntity
8
0
100
AcDbLine
10
149.65278884338187
20
-7.7629903753492258
30
0
11
149.11390563415335
21
-10.450575729200544
31
0
0
SPLINE
5
239
100
AcDbEntity
8
0
100
AcDbSpline
70
0
71
2
72
6
73
3
74
0
42
0.000000001
43
0.0000000001
44
0.0000000001
40
0
40
0
40
0
40
1
40
1
40
1
10
149.11390563415335
20
-10.450575729200544
30
0
10
150.01431723998832
20
-9.8230180938932321
30
0
10
151.00340148376273
20
-9.8230180938932321
30
0
0
SPLINE
5
240
100
AcDbEntity
8
0
100
AcDbSpline
70
0
71
2
72
6
73
3
74
0
42
0.000000001
43
0.0000000001
44
0.0000000001
40
0
40
0
40
0
40
1
40
1
40
1
10
151.00340148376273
20
-9.8230180938932321
30
0
10
152.3130919592266
20
-9.8230180938932321
30
0
10
153.21350356506156
20
-10.730248471090498
30
0
0
SPLINE
5
241
100
AcDbEntity
8
0
100
AcDbSpline
70
0
71
2
72
6
73
3
74
0
42
0.000000001
43
0.0000000001
44
0.0000000001
40
0
40
0
40
0
40
1
40
1
40
1
10
153.21350356506156
20
-10.730248471090498
30
0
10
154.11390563415335
20
-11.637479444334211
30
0
10
154.11390563415335
20
-13.063127775976362
30
0
0
SPLINE
5
242
100
AcDbEntity
8
0
100
AcDbSpline
70
0
71
2
72
6
73
3
74
0
42
0.000000001
43
0.0000000001
44
0.0000000001
40
0
40
0
40
0
40
1
40
1
40
1
10
154.11390563415335
20
-13.063127775976362
30
0
10
154.11390563415335
20
-14.420562763998213
30
0
10
153.32264205383109
20
-15.409649391958418
30
0
0
SPLINE
5
243
100
AcDbEntity
8
0
100
AcDbSpline
70
0
71
2
72
6
73
3
74
0
42
0.000000001
43
0.0000000001
44
0.0000000001
40
0
40
0
40
0
40
1
40
1
40
1
10
153.32264205383109
20
-15.409649391958418
30
0
10
152.36084243224906
20
-16.623837729284467
30
0
10
150.69644233154105
20
-16.623837729284467
30
0
0
SPLINE
5
244
100
AcDbEntity
8
0
100
AcDbSpline
70
0
71
2
72
6
73
3
74
0
42
0.000000001
43
0.0000000001
44
0.0000000001
40
0
40
0
40
0
40
1
40
1
40
1
10
150.69644233154105
20
-16.623837729284467
30
0
10
149.33219214843558
20
-16.623837729284467
30
0
10
148.46588393615531
20
-15.859854002783003
30
0
0
SPLINE
5
245
100
AcDbEntity
8
0
100
AcDbSpline
70
0
71
2
72
6
73
3
74
0
42
0.000000001
43
0.0000000001
44
0.0000000001
40
0
40
0
40
0
40
1
40
1
40
1
10
148.46588393615531
20
-15.859854002783003
30
0
10
147.6064040319805
20
-15.095870276281538
30
0
10
147.4836184637432
20
-13.833932658025923
30
0
0
LINE
5
246
100
AcDbEntity
8
0
100
AcDbLine
10
177.1493842260723
20
-8.9021454055997751
30
0
11
175.92837592529105
21
-8.9976433714124582
31
0
0
SPLINE
5
247
100
AcDbEntity
8
0
100
AcDbSpline
70
0
71
2
72
6
73
3
74
0
42
0.000000001
43
0.0000000001
44
0.0000000001
40
0
40
0
40
0
40
1
40
1
40
1
10
175.92837592529105
20
-8.9976433714124582
30
0
10
175.76465865539359
20
-8.2745871742460153
30
0
10
175.46452781127738
20
-7.947165747472944
30
0
0
SPLINE
5
248
100
AcDbEntity
8
0
100
AcDbSpline
70
0
71
2
72
6
73
3
74
0
42
0.000000001
43
0.0000000001
44
0.0000000001
40
0
40
0
40
0
40
1
40
1
40
1
10
175.46452781127738
20
-7.947165747472944
30
0
10
174.96656676696585
20
-7.4219272335264108
30
0
10
174.23669120239066
20
-7.4219272335264108
30
0
0
SPLINE
5
249
100
AcDbEntity
8
0
100
AcDbSpline
70
0
71
2
72
6
73
3
74
0
42
0.000000001
43
0.0000000001
44
0.0000000001
40
0
40
0
40
0
40
1
40
1
40
1
10
174.23669120239066
20
-7.4219272335264108
30
0
10
173.65006705688285
20
-7.4219272335264108
30
0
10
173.20668479369925
20
-7.7493486602994821
30
0
0
SPLINE
5
250
100
AcDbEntity
8
0
100
AcDbSpline
70
0
71
2
72
6
73
3
74
0
42
0.000000001
43
0.0000000001
44
0.0000000001
40
0
40
0
40
0
40
1
40
1
40
1
10
173.20668479369925
20
-7.7493486602994821
30
0
10
172.62686988281058
20
-8.1722680528852365
30
0
10
172.29262610839652
20
-8.984000464269819
30
0
0
SPLINE
5
251
100
AcDbEntity
8
0
100
AcDbSpline
70
0
71
2
72
6
73
3
74
0
42
0.000000001
43
0.0000000001
44
0.0000000001
40
0
40
0
40
0
40
1
40
1
40
1
10
172.29262610839652
20
-8.984000464269819
30
0
10
171.95838233398246
20
-9.7957334717008493
30
0
10
171.94474479125785
20
-11.296415706464948
30
0
0
SPLINE
5
252
100
AcDbEntity
8
0
100
AcDbSpline
70
0
71
2
72
6
73
3
74
0
42
0.000000001
43
0.0000000001
44
0.0000000001
40
0
40
0
40
0
40
1
40
1
40
1
10
171.94474479125785
20
-11.296415706464948
30
0
10
172.38812705444144
20
-10.621108790228071
30
0
10
173.02932998107718
20
-10.293686767408552
30
0
0
SPLINE
5
253
100
AcDbEntity
8
0
100
AcDbSpline
70
0
71
2
72
6
73
3
74
0
42
0.000000001
43
0.0000000001
44
0.0000000001
40
0
40
0
40
0
40
1
40
1
40
1
10
173.02932998107718
20
-10.293686767408552
30
0
10
173.67052337096976
20
-9.9662653406354806
30
0
10
174.37312385009574
20
-9.9662653406354806
30
0
0
SPLINE
5
254
100
AcDbEntity
8
0
100
AcDbSpline
70
0
71
2
72
6
73
3
74
0
42
0.000000001
43
0.0000000001
44
0.0000000001
40
0
40
0
40
0
40
1
40
1
40
1
10
174.37312385009574
20
-9.9662653406354806
30
0
10
175.60095092223929
20
-9.9662653406354806
30
0
10
176.4604308264141
20
-10.873495717832746
30
0
0
SPLINE
5
255
100
AcDbEntity
8
0
100
AcDbSpline
70
0
71
2
72
6
73
3
74
0
42
0.000000001
43
0.0000000001
44
0.0000000001
40
0
40
0
40
0
40
1
40
1
40
1
10
176.4604308264141
20
-10.873495717832746
30
0
10
177.32673903869437
20
-11.773905535528364
30
0
10
177.32673903869437
20
-13.206375022718611
30
0
0
SPLINE
5
256
100
AcDbEntity
8
0
100
AcDbSpline
70
0
71
2
72
6
73
3
74
0
42
0.000000001
43
0.0000000001
44
0.0000000001
40
0
40
0
40
0
40
1
40
1
40
1
10
177.32673903869437
20
-13.206375022718611
30
0
10
177.32673903869437
20
-14.147711773702802
30
0
10
176.91746016906546
20
-14.959444781133833
30
0
0
SPLINE
5
257
100
AcDbEntity
8
0
100
AcDbSpline
70
0
71
2
72
6
73
3
74
0
42
0.000000001
43
0.0000000001
44
0.0000000001
40
0
40
0
40
0
40
1
40
1
40
1
10
176.91746016906546
20
-14.959444781133833
30
0
10
176.51500007079886
20
-15.764355440923872
30
0
10
175.80559035705375
20
-16.19409658510417
30
0
0
SPLINE
5
258
100
AcDbEntity
8
0
100
AcDbSpline
70
0
71
2
72
6
73
3
74
0
42
0.000000001
43
0.0000000001
44
0.0000000001
40
0
40
0
40
0
40
1
40
1
40
1
10
175.80559035705375
20
-16.19409658510417
30
0
10
175.09617110656546
20
-16.623837729284467
30
0
10
174.19576903747367
20
-16.623837729284467
30
0
0
SPLINE
5
259
100
AcDbEntity
8
0
100
AcDbSpline
70
0
71
2
72
6
73
3
74
0
42
0.000000001
43
0.0000000001
44
0.0000000001
40
0
40
0
40
0
40
1
40
1
40
1
10
174.19576903747367
20
-16.623837729284467
30
0
10
172.66098281310843
20
-16.623837729284467
30
0
10
171.69235488342093
20
-15.498325606176557
30
0
0
SPLINE
5
260
100
AcDbEntity
8
0
100
AcDbSpline
70
0
71
2
72
6
73
3
74
0
42
0.000000001
43
0.0000000001
44
0.0000000001
40
0
40
0
40
0
40
1
40
1
40
1
10
171.69235488342093
20
-15.498325606176557
30
0
10
170.7237364904766
20
-14.365992327520551
30
0
10
170.7237364904766
20
-11.773905535528364
30
0
0
SPLINE
5
261
100
AcDbEntity
8
0
100
AcDbSpline
70
0
71
2
72
6
73
3
74
0
42
0.000000001
43
0.0000000001
44
0.0000000001
40
0
40
0
40
0
40
1
40
1
40
1
10
170.7237364904766
20
-11.773905535528364
30
0
10
170.7237364904766
20
-8.8748601873609445
30
0
10
171.79467460082816
20
-7.5583527286741159
30
0
0
SPLINE
5
262
100
AcDbEntity
8
0
100
AcDbSpline
70
0
71
2
72
6
73
3
74
0
42
0.000000001
43
0.0000000001
44
0.0000000001
40
0
40
0
40
0
40
1
40
1
40
1
10
171.79467460082816
20
-7.5583527286741159
30
0
10
172.72918960021781
20
-6.4123771389219186
30
0
10
174.3117262976055
20
-6.4123771389219186
30
0
0
SPLINE
5
263
100
AcDbEntity
8
0
100
AcDbSpline
70
0
71
2
72
6
73
3
74
0
42
0.000000001
43
0.0000000001
44
0.0000000001
40
0
40
0
40
0
40
1
40
1
40
1
10
174.3117262976055
20
-6.4123771389219186
30
0
10
175.49181243346976
20
-6.4123771389219186
30
0
10
176.24215384887503
20
-7.0740417440626047
30
0
0
SPLINE
5
264
100
AcDbEntity
8
0
100
AcDbSpline
70
0
71
2
72
6
73
3
74
0
42
0.000000001
43
0.0000000001
44
0.0000000001
40
0
40
0
40
0
40
1
40
1
40
1
10
176.24215384887503
20
-7.0740417440626047
30
0
10
176.99931403564261
20
-7.7357063492032907
30
0
10
177.1493842260723
20
-8.9021454055997751
30
0
0
SPLINE
5
265
100
AcDbEntity
8
0
100
AcDbSpline
70
0
71
2
72
6
73
3
74
0
42
0.000000001
43
0.0000000001
44
0.0000000001
40
0
40
0
40
0
40
1
40
1
40
1
10
172.13573714660453
20
-13.213196178266706
30
0
10
172.13573714660453
20
-13.847574969122114
30
0
10
172.40177413390921
20
-14.427385111639204
30
0
0
SPLINE
5
266
100
AcDbEntity
8
0
100
AcDbSpline
70
0
71
2
72
6
73
3
74
0
42
0.000000001
43
0.0000000001
44
0.0000000001
40
0
40
0
40
0
40
1
40
1
40
1
10
172.40177413390921
20
-14.427385111639204
30
0
10
172.67462035583304
20
-15.007192869970503
30
0
10
173.15893432067679
20
-15.314150830099287
30
0
0
SPLINE
5
267
100
AcDbEntity
8
0
100
AcDbSpline
70
0
71
2
72
6
73
3
74
0
42
0.000000001
43
0.0000000001
44
0.0000000001
40
0
40
0
40
0
40
1
40
1
40
1
10
173.15893432067679
20
-15.314150830099287
30
0
10
173.64323874877738
20
-15.614287634679975
30
0
10
174.17530318664359
20
-15.614287634679975
30
0
0
SPLINE
5
268
100
AcDbEntity
8
0
100
AcDbSpline
70
0
71
2
72
6
73
3
74
0
42
0.000000001
43
0.0000000001
44
0.0000000001
40
0
40
0
40
0
40
1
40
1
40
1
10
174.17530318664359
20
-15.614287634679975
30
0
10
174.95292922424125
20
-15.614287634679975
30
0
10
175.51227828429984
20
-14.986729403326216
30
0
0
SPLINE
5
269
100
AcDbEntity
8
0
100
AcDbSpline
70
0
71
2
72
6
73
3
74
0
42
0.000000001
43
0.0000000001
44
0.0000000001
40
0
40
0
40
0
40
1
40
1
40
1
10
175.51227828429984
20
-14.986729403326216
30
0
10
176.07161780761527
20
-14.359171171972456
30
0
10
176.07161780761527
20
-13.281408925840559
30
0
0
SPLINE
5
270
100
AcDbEntity
8
0
100
AcDbSpline
70
0
71
2
72
6
73
3
74
0
42
0.000000001
43
0.0000000001
44
0.0000000001
40
0
40
0
40
0
40
1
40
1
40
1
10
176.07161780761527
20
-13.281408925840559
30
0
10
176.07161780761527
20
-12.244574209043684
30
0
10
175.51909705566214
20
-11.65112235147685
30
0
0
SPLINE
5
271
100
AcDbEntity
8
0
100
AcDbSpline
70
0
71
2
72
6
73
3
74
0
42
0.000000001
43
0.0000000001
44
0.0000000001
40
0
40
0
40
0
40
1
40
1
40
1
10
175.51909705566214
20
-11.65112235147685
30
0
10
174.96656676696585
20
-11.050849338361921
30
0
10
174.12755271362113
20
-11.050849338361921
30
0
0
SPLINE
5
272
100
AcDbEntity
8
0
100
AcDbSpline
70
0
71
2
72
6
73
3
74
0
42
0.000000001
43
0.0000000001
44
0.0000000001
40
0
40
0
40
0
40
1
40
1
40
1
10
174.12755271362113
20
-11.050849338361921
30
0
10
173.29535743163871
20
-11.050849338361921
30
0
10
172.7155520574932
20
-11.65112235147685
30
0
0
SPLINE
5
273
100
AcDbEntity
8
0
100
AcDbSpline
70
0
71
2
72
6
73
3
74
0
42
0.000000001
43
0.0000000001
44
0.0000000001
40
0
40
0
40
0
40
1
40
1
40
1
10
172.7155520574932
20
-11.65112235147685
30
0
10
172.13573714660453
20
-12.244574209043684
30
0
10
172.13573714660453
20
-13.213196178266706
30
0
0
LINE
5
274
100
AcDbEntity
8
0
100
AcDbLine
10
194.15482779907035
20
-7.7629915674421213
30
0
11
194.15482779907035
21
-6.5829096039029977
31
0
0
LINE
5
275
100
AcDbEntity
8
0
100
AcDbLine
10
194.15482779907035
20
-6.5829096039029977
30
0
11
200.62822600768851
21
-6.5829096039029977
31
0
0
LINE
5
276
100
AcDbEntity
8
0
100
AcDbLine
10
200.62822600768851
20
-6.5829096039029977
30
0
11
200.62822600768851
21
-7.5378892620298288
31
0
0
SPLINE
5
277
100
AcDbEntity
8
0
100
AcDbSpline
70
0
71
2
72
6
73
3
74
0
42
0.000000001
43
0.0000000001
44
0.0000000001
40
0
40
0
40
0
40
1
40
1
40
1
10
200.62822600768851
20
-7.5378892620298288
30
0
10
199.67325469421195
20
-8.5542599161359689
30
0
10
198.73191138671683
20
-10.239116926977339
30
0
0
SPLINE
5
278
100
AcDbEntity
8
0
100
AcDbSpline
70
0
71
2
72
6
73
3
74
0
42
0.000000001
43
0.0000000001
44
0.0000000001
40
0
40
0
40
0
40
1
40
1
40
1
10
198.73191138671683
20
-10.239116926977339
30
0
10
197.79739638732718
20
-11.92397334177226
30
0
10
197.28579780029105
20
-13.704328318426313
30
0
0
SPLINE
5
279
100
AcDbEntity
8
0
100
AcDbSpline
70
0
71
2
72
6
73
3
74
0
42
0.000000001
43
0.0000000001
44
0.0000000001
40
0
40
0
40
0
40
1
40
1
40
1
10
197.28579780029105
20
-13.704328318426313
30
0
10
196.9174506323223
20
-14.959444781133833
30
0
10
196.81513091491507
20
-16.453305264303388
30
0
0
LINE
5
280
100
AcDbEntity
8
0
100
AcDbLine
10
196.81513091491507
20
-16.453305264303388
30
0
11
195.55319091247367
21
-16.453305264303388
31
0
0
SPLINE
5
281
100
AcDbEntity
8
0
100
AcDbSpline
70
0
71
2
72
6
73
3
74
0
42
0.000000001
43
0.0000000001
44
0.0000000001
40
0
40
0
40
0
40
1
40
1
40
1
10
195.55319091247367
20
-16.453305264303388
30
0
10
195.57365676330375
20
-15.273223896810713
30
0
10
196.01703902648734
20
-13.602009197065534
30
0
0
SPLINE
5
282
100
AcDbEntity
8
0
100
AcDbSpline
70
0
71
2
72
6
73
3
74
0
42
0.000000001
43
0.0000000001
44
0.0000000001
40
0
40
0
40
0
40
1
40
1
40
1
10
196.01703902648734
20
-13.602009197065534
30
0
10
196.46042128967093
20
-11.930795093366804
30
0
10
197.28579780029105
20
-10.382364173719587
30
0
0
SPLINE
5
283
100
AcDbEntity
8
0
100
AcDbSpline
70
0
71
2
72
6
73
3
74
0
42
0.000000001
43
0.0000000001
44
0.0000000001
40
0
40
0
40
0
40
1
40
1
40
1
10
197.28579780029105
20
-10.382364173719587
30
0
10
198.11799308227347
20
-8.8271115024778268
30
0
10
199.05250808166312
20
-7.7629915674421213
30
0
0
LINE
5
284
100
AcDbEntity
8
0
100
AcDbLine
10
199.05250808166312
20
-7.7629915674421213
30
0
11
194.15482779907035
21
-7.7629915674421213
31
0
0
SPLINE
5
285
100
AcDbEntity
8
0
100
AcDbSpline
70
0
71
2
72
6
73
3
74
0
42
0.000000001
43
0.0000000001
44
0.0000000001
40
0
40
0
40
0
40
1
40
1
40
1
10
114.60477645722395
20
134.93738792979812
30
0
10
113.8407928797341
20
135.21706007564163
30
0
10
113.47244362560278
20
135.73547803008651
30
0
0
SPLINE
5
286
100
AcDbEntity
8
0
100
AcDbSpline
70
0
71
2
72
6
73
3
74
0
42
0.000000001
43
0.0000000001
44
0.0000000001
40
0
40
0
40
0
40
1
40
1
40
1
10
113.47244362560278
20
135.73547803008651
30
0
10
113.10409437147146
20
136.25389538848495
30
0
10
113.10409437147146
20
136.97695098960494
30
0
0
SPLINE
5
287
100
AcDbEntity
8
0
100
AcDbSpline
70
0
71
2
72
6
73
3
74
0
42
0.000000001
43
0.0000000001
44
0.0000000001
40
0
40
0
40
0
40
1
40
1
40
1
10
113.10409437147146
20
136.97695098960494
30
0
10
113.10409437147146
20
138.06835614287948
30
0
10
113.88854186264044
20
138.81187640273666
30
0
0
SPLINE
5
288
100
AcDbEntity
8
0
100
AcDbSpline
70
0
71
2
72
6
73
3
74
0
42
0.000000001
43
0.0000000001
44
0.0000000001
40
0
40
0
40
0
40
1
40
1
40
1
10
113.88854186264044
20
138.81187640273666
30
0
10
114.6729892047978
20
139.55539606654739
30
0
10
115.97585405436521
20
139.55539606654739
30
0
0
SPLINE
5
289
100
AcDbEntity
8
0
100
AcDbSpline
70
0
71
2
72
6
73
3
74
0
42
0.000000001
43
0.0000000001
44
0.0000000001
40
0
40
0
40
0
40
1
40
1
40
1
10
115.97585405436521
20
139.55539606654739
30
0
10
117.28554065552717
20
139.55539606654739
30
0
10
118.08363075581556
20
138.79141234004592
30
0
0
SPLINE
5
290
100
AcDbEntity
8
0
100
AcDbSpline
70
0
71
2
72
6
73
3
74
0
42
0.000000001
43
0.0000000001
44
0.0000000001
40
0
40
0
40
0
40
1
40
1
40
1
10
118.08363075581556
20
138.79141234004592
30
0
10
118.88172085610395
20
138.03424976909255
30
0
10
118.88172085610395
20
136.94284461581802
30
0
0
SPLINE
5
291
100
AcDbEntity
8
0
100
AcDbSpline
70
0
71
2
72
6
73
3
74
0
42
0.000000001
43
0.0000000001
44
0.0000000001
40
0
40
0
40
0
40
1
40
1
40
1
10
118.88172085610395
20
136.94284461581802
30
0
10
118.88172085610395
20
136.24707423293685
30
0
10
118.51337130394941
20
135.72865627849197
30
0
0
SPLINE
5
292
100
AcDbEntity
8
0
100
AcDbSpline
70
0
71
2
72
6
73
3
74
0
42
0.000000001
43
0.0000000001
44
0.0000000001
40
0
40
0
40
0
40
1
40
1
40
1
10
118.51337130394941
20
135.72865627849197
30
0
10
118.15184350338941
20
135.21706007564163
30
0
10
117.40832383957869
20
134.93738792979812
30
0
0
SPLINE
5
293
100
AcDbEntity
8
0
100
AcDbSpline
70
0
71
2
72
6
73
3
74
0
42
0.000000001
43
0.0000000001
44
0.0000000001
40
0
40
0
40
0
40
1
40
1
40
1
10
117.40832383957869
20
134.93738792979812
30
0
10
118.32919712391859
20
134.63725112521743
30
0
10
118.80668635693556
20
133.96876536452865
30
0
0
SPLINE
5
294
100
AcDbEntity
8
0
100
AcDbSpline
70
0
71
2
72
6
73
3
74
0
42
0.000000001
43
0.0000000001
44
0.0000000001
40
0
40
0
40
0
40
1
40
1
40
1
10
118.80668635693556
20
133.96876536452865
30
0
10
119.29099793759352
20
133.30027960383987
30
0
10
119.29099793759352
20
132.37258516395187
30
0
0
SPLINE
5
295
100
AcDbEntity
8
0
100
AcDbSpline
70
0
71
2
72
6
73
3
74
0
42
0.000000001
43
0.0000000001
44
0.0000000001
40
0
40
0
40
0
40
1
40
1
40
1
10
119.29099793759352
20
132.37258516395187
30
0
10
119.29099793759352
20
131.09018467509841
30
0
10
118.3837669643498
20
130.21706007564163
30
0
0
SPLINE
5
296
100
AcDbEntity
8
0
100
AcDbSpline
70
0
71
2
72
6
73
3
74
0
42
0.000000001
43
0.0000000001
44
0.0000000001
40
0
40
0
40
0
40
1
40
1
40
1
10
118.3837669643498
20
130.21706007564163
30
0
10
117.47653658715254
20
129.34393547618484
30
0
10
115.99631811705595
20
129.34393547618484
30
0
0
SPLINE
5
297
100
AcDbEntity
8
0
100
AcDbSpline
70
0
71
2
72
6
73
3
74
0
42
0.000000001
43
0.0000000001
44
0.0000000001
40
0
40
0
40
0
40
1
40
1
40
1
10
115.99631811705595
20
129.34393547618484
30
0
10
114.51609979597097
20
129.34393547618484
30
0
10
113.6088692697621
20
130.21706007564163
30
0
0
SPLINE
5
298
100
AcDbEntity
8
0
100
AcDbSpline
70
0
71
2
72
6
73
3
74
0
42
0.000000001
43
0.0000000001
44
0.0000000001
40
0
40
0
40
0
40
1
40
1
40
1
10
113.6088692697621
20
130.21706007564163
30
0
10
112.70163866904741
20
131.09700583064651
30
0
10
112.70163866904741
20
132.40669153773879
30
0
0
SPLINE
5
299
100
AcDbEntity
8
0
100
AcDbSpline
70
0
71
2
72
6
73
3
74
0
42
0.000000001
43
0.0000000001
44
0.0000000001
40
0
40
0
40
0
40
1
40
1
40
1
10
112.70163866904741
20
132.40669153773879
30
0
10
112.70163866904741
20
133.38213466250991
30
0
10
113.19277103272444
20
134.0369781121025
30
0
0
SPLINE
5
300
100
AcDbEntity
8
0
100
AcDbSpline
70
0
71
2
72
6
73
3
74
0
42
0.000000001
43
0.0000000001
44
0.0000000001
40
0
40
0
40
0
40
1
40
1
40
1
10
113.19277103272444
20
134.0369781121025
30
0
10
113.69072462645536
20
134.69864271724319
30
0
10
114.60477645722395
20
134.93738792979812
30
0
0
SPLINE
5
301
100
AcDbEntity
8
0
100
AcDbSpline
70
0
71
2
72
6
73
3
74
0
42
0.000000001
43
0.0000000001
44
0.0000000001
40
0
40
0
40
0
40
1
40
1
40
1
10
114.35921038714415
20
137.01787911498641
30
0
10
114.35921038714415
20
136.30846522891616
30
0
10
114.81623615351683
20
135.85826061809158
30
0
0
SPLINE
5
302
100
AcDbEntity
8
0
100
AcDbSpline
70
0
71
2
72
6
73
3
74
0
42
0.000000001
43
0.0000000001
44
0.0000000001
40
0
40
0
40
0
40
1
40
1
40
1
10
114.81623615351683
20
135.85826061809158
30
0
10
115.27326191988951
20
135.40805600726699
30
0
10
116.00313927260405
20
135.40805600726699
30
0
0
SPLINE
5
303
100
AcDbEntity
8
0
100
AcDbSpline
70
0
71
2
72
6
73
3
74
0
42
0.000000001
43
0.0000000001
44
0.0000000001
40
0
40
0
40
0
40
1
40
1
40
1
10
116.00313927260405
20
135.40805600726699
30
0
10
116.71255256262785
20
135.40805600726699
30
0
10
117.16275747147566
20
135.85143946254348
30
0
0
SPLINE
5
304
100
AcDbEntity
8
0
100
AcDbSpline
70
0
71
2
72
6
73
3
74
0
42
0.000000001
43
0.0000000001
44
0.0000000001
40
0
40
0
40
0
40
1
40
1
40
1
10
117.16275747147566
20
135.85143946254348
30
0
10
117.61978323784834
20
136.30164407336807
30
0
10
117.61978323784834
20
136.94966577136611
30
0
0
SPLINE
5
305
100
AcDbEntity
8
0
100
AcDbSpline
70
0
71
2
72
6
73
3
74
0
42
0.000000001
43
0.0000000001
44
0.0000000001
40
0
40
0
40
0
40
1
40
1
40
1
10
117.61978323784834
20
136.94966577136611
30
0
10
117.61978323784834
20
137.62497328364944
30
0
10
117.14911516037947
20
138.08199905002212
30
0
0
SPLINE
5
306
100
AcDbEntity
8
0
100
AcDbSpline
70
0
71
2
72
6
73
3
74
0
42
0.000000001
43
0.0000000001
44
0.0000000001
40
0
40
0
40
0
40
1
40
1
40
1
10
117.14911516037947
20
138.08199905002212
30
0
10
116.68526764241224
20
138.5458459719429
30
0
10
115.98949666348463
20
138.5458459719429
30
0
0
SPLINE
5
307
100
AcDbEntity
8
0
100
AcDbSpline
70
0
71
2
72
6
73
3
74
0
42
0.000000001
43
0.0000000001
44
0.0000000001
40
0
40
0
40
0
40
1
40
1
40
1
10
115.98949666348463
20
138.5458459719429
30
0
10
115.28690452900892
20
138.5458459719429
30
0
10
114.82305730906492
20
138.09564136111831
30
0
0
SPLINE
5
308
100
AcDbEntity
8
0
100
AcDbSpline
70
0
71
2
72
6
73
3
74
0
42
0.000000001
43
0.0000000001
44
0.0000000001
40
0
40
0
40
0
40
1
40
1
40
1
10
114.82305730906492
20
138.09564136111831
30
0
10
114.35921038714415
20
137.64543675029373
30
0
10
114.35921038714415
20
137.01787911498641
30
0
0
SPLINE
5
309
100
AcDbEntity
8
0
100
AcDbSpline
70
0
71
2
72
6
73
3
74
0
42
0.000000001
43
0.0000000001
44
0.0000000001
40
0
40
0
40
0
40
1
40
1
40
1
10
113.963575914774
20
132.3998703821907
30
0
10
113.963575914774
20
131.87463186824417
30
0
10
114.20914213386541
20
131.38349913203811
30
0
0
SPLINE
5
310
100
AcDbEntity
8
0
100
AcDbSpline
70
0
71
2
72
6
73
3
74
0
42
0.000000001
43
0.0000000001
44
0.0000000001
40
0
40
0
40
0
40
1
40
1
40
1
10
114.20914213386541
20
131.38349913203811
30
0
10
114.46152965751654
20
130.89236639583206
30
0
10
114.95266164866453
20
130.61951540553665
30
0
0
SPLINE
5
311
100
AcDbEntity
8
0
100
AcDbSpline
70
0
71
2
72
6
73
3
74
0
42
0.000000001
43
0.0000000001
44
0.0000000001
40
0
40
0
40
0
40
1
40
1
40
1
10
114.95266164866453
20
130.61951540553665
30
0
10
115.44379408684736
20
130.35348557078933
30
0
10
116.00996042815214
20
130.35348557078933
30
0
0
SPLINE
5
312
100
AcDbEntity
8
0
100
AcDbSpline
70
0
71
2
72
6
73
3
74
0
42
0.000000001
43
0.0000000001
44
0.0000000001
40
0
40
0
40
0
40
1
40
1
40
1
10
116.00996042815214
20
130.35348557078933
30
0
10
116.8899058851338
20
130.35348557078933
30
0
10
117.46289427605635
20
130.91965221011733
30
0
0
SPLINE
5
313
100
AcDbEntity
8
0
100
AcDbSpline
70
0
71
2
72
6
73
3
74
0
42
0.000000001
43
0.0000000001
44
0.0000000001
40
0
40
0
40
0
40
1
40
1
40
1
10
117.46289427605635
20
130.91965221011733
30
0
10
118.035881474886
20
131.48581884944534
30
0
10
118.035881474886
20
132.35894225680923
30
0
0
SPLINE
5
314
100
AcDbEntity
8
0
100
AcDbSpline
70
0
71
2
72
6
73
3
74
0
42
0.000000001
43
0.0000000001
44
0.0000000001
40
0
40
0
40
0
40
1
40
1
40
1
10
118.035881474886
20
132.35894225680923
30
0
10
118.035881474886
20
133.24570916736221
30
0
10
117.44243021336561
20
133.8255181177864
30
0
0
SPLINE
5
315
100
AcDbEntity
8
0
100
AcDbSpline
70
0
71
2
72
6
73
3
74
0
42
0.000000001
43
0.0000000001
44
0.0000000001
40
0
40
0
40
0
40
1
40
1
40
1
10
117.44243021336561
20
133.8255181177864
30
0
10
116.85579951134687
20
134.4053270682106
30
0
10
115.96903289881712
20
134.4053270682106
30
0
0
SPLINE
5
316
100
AcDbEntity
8
0
100
AcDbSpline
70
0
71
2
72
6
73
3
74
0
42
0.000000001
43
0.0000000001
44
0.0000000001
40
0
40
0
40
0
40
1
40
1
40
1
10
115.96903289881712
20
134.4053270682106
30
0
10
115.10273005095488
20
134.4053270682106
30
0
10
114.52974240509039
20
133.8323392733345
30
0
0
SPLINE
5
317
100
AcDbEntity
8
0
100
AcDbSpline
70
0
71
2
72
6
73
3
74
0
42
0.000000001
43
0.0000000001
44
0.0000000001
40
0
40
0
40
0
40
1
40
1
40
1
10
114.52974240509039
20
133.8323392733345
30
0
10
113.963575914774
20
133.25935207450485
30
0
10
113.963575914774
20
132.3998703821907
30
0
0
LINE
5
318
100
AcDbEntity
8
0
100
AcDbLine
10
136.19413609829908
20
131.8268825873146
30
0
11
137.37421746579176
21
131.93602346026992
31
0
0
SPLINE
5
319
100
AcDbEntity
8
0
100
AcDbSpline
70
0
71
2
72
6
73
3
74
0
42
0.000000001
43
0.0000000001
44
0.0000000001
40
0
40
0
40
0
40
1
40
1
40
1
10
137.37421746579176
20
131.93602346026992
30
0
10
137.52428527203566
20
131.1038269861946
30
0
10
137.94720645276075
20
130.72865627849197
30
0
0
SPLINE
5
320
100
AcDbEntity
8
0
100
AcDbSpline
70
0
71
2
72
6
73
3
74
0
42
0.000000001
43
0.0000000001
44
0.0000000001
40
0
40
0
40
0
40
1
40
1
40
1
10
137.94720645276075
20
130.72865627849197
30
0
10
138.37012524930006
20
130.35348557078933
30
0
10
139.0317892583943
20
130.35348557078933
30
0
0
SPLINE
5
321
100
AcDbEntity
8
0
100
AcDbSpline
70
0
71
2
72
6
73
3
74
0
42
0.000000001
43
0.0000000001
44
0.0000000001
40
0
40
0
40
0
40
1
40
1
40
1
10
139.0317892583943
20
130.35348557078933
30
0
10
139.5979570898152
20
130.35348557078933
30
0
10
140.0208758863545
20
130.61269424998855
30
0
0
SPLINE
5
322
100
AcDbEntity
8
0
100
AcDbSpline
70
0
71
2
72
6
73
3
74
0
42
0.000000001
43
0.0000000001
44
0.0000000001
40
0
40
0
40
0
40
1
40
1
40
1
10
140.0208758863545
20
130.61269424998855
30
0
10
140.45061583844191
20
130.87190292918777
30
0
10
140.72346682873732
20
131.30164407336807
30
0
0
SPLINE
5
323
100
AcDbEntity
8
0
100
AcDbSpline
70
0
71
2
72
6
73
3
74
0
42
0.000000001
43
0.0000000001
44
0.0000000001
40
0
40
0
40
0
40
1
40
1
40
1
10
140.72346682873732
20
131.30164407336807
30
0
10
140.99631781903273
20
131.73820637309646
30
0
10
141.18049378720289
20
132.47490428531262
30
0
0
SPLINE
5
324
100
AcDbEntity
8
0
100
AcDbSpline
70
0
71
2
72
6
73
3
74
0
42
0.000000001
43
0.0000000001
44
0.0000000001
40
0
40
0
40
0
40
1
40
1
40
1
10
141.18049378720289
20
132.47490428531262
30
0
10
141.36466975537306
20
133.2116033896217
30
0
10
141.36466975537306
20
133.97558652007672
30
0
0
SPLINE
5
325
100
AcDbEntity
8
0
100
AcDbSpline
70
0
71
2
72
6
73
3
74
0
42
0.000000001
43
0.0000000001
44
0.0000000001
40
0
40
0
40
0
40
1
40
1
40
1
10
141.36466975537306
20
133.97558652007672
30
0
10
141.36466975537306
20
134.05744217479321
30
0
10
141.35784621563917
20
134.22115288817974
30
0
0
SPLINE
5
326
100
AcDbEntity
8
0
100
AcDbSpline
70
0
71
2
72
6
73
3
74
0
42
0.000000001
43
0.0000000001
44
0.0000000001
40
0
40
0
40
0
40
1
40
1
40
1
10
141.35784621563917
20
134.22115288817974
30
0
10
140.98949904767042
20
133.63452218616101
30
0
10
140.34829612103468
20
133.26617323005291
30
0
0
SPLINE
5
327
100
AcDbEntity
8
0
100
AcDbSpline
70
0
71
2
72
6
73
3
74
0
42
0.000000001
43
0.0000000001
44
0.0000000001
40
0
40
0
40
0
40
1
40
1
40
1
10
140.34829612103468
20
133.26617323005291
30
0
10
139.71391911831861
20
132.90464542949292
30
0
10
138.97039885846144
20
132.90464542949294
30
0
0
SPLINE
5
328
100
AcDbEntity
8
0
100
AcDbSpline
70
0
71
2
72
6
73
3
74
0
42
0.000000001
43
0.0000000001
44
0.0000000001
40
0
40
0
40
0
40
1
40
1
40
1
10
138.97039885846144
20
132.90464542949294
30
0
10
137.72892470685011
20
132.90464542949294
30
0
10
136.86944241848951
20
133.80505465114211
30
0
0
SPLINE
5
329
100
AcDbEntity
8
0
100
AcDbSpline
70
0
71
2
72
6
73
3
74
0
42
0.000000001
43
0.0000000001
44
0.0000000001
40
0
40
0
40
0
40
1
40
1
40
1
10
136.86944241848951
20
133.80505465114211
30
0
10
136.00996251431471
20
134.70546387279128
30
0
10
136.00996251431471
20
136.17886088931655
30
0
0
SPLINE
5
330
100
AcDbEntity
8
0
100
AcDbSpline
70
0
71
2
72
6
73
3
74
0
42
0.000000001
43
0.0000000001
44
0.0000000001
40
0
40
0
40
0
40
1
40
1
40
1
10
136.00996251431471
20
136.17886088931655
30
0
10
136.00996251431471
20
137.70000718677139
30
0
10
136.90355058041578
20
138.62770162665939
30
0
0
SPLINE
5
331
100
AcDbEntity
8
0
100
AcDbSpline
70
0
71
2
72
6
73
3
74
0
42
0.000000001
43
0.0000000001
44
0.0000000001
40
0
40
0
40
0
40
1
40
1
40
1
10
136.90355058041578
20
138.62770162665939
30
0
10
137.80395980206495
20
139.55539606654739
30
0
10
139.15457244244581
20
139.55539606654736
30
0
0
SPLINE
5
332
100
AcDbEntity
8
0
100
AcDbSpline
70
0
71
2
72
6
73
3
74
0
42
0.000000001
43
0.0000000001
44
0.0000000001
40
0
40
0
40
0
40
1
40
1
40
1
10
139.15457244244581
20
139.55539606654736
30
0
10
140.13001675930983
20
139.55539606654736
30
0
10
140.93492741909986
20
139.03015695655438
30
0
0
SPLINE
5
333
100
AcDbEntity
8
0
100
AcDbSpline
70
0
71
2
72
6
73
3
74
0
42
0.000000001
43
0.0000000001
44
0.0000000001
40
0
40
0
40
0
40
1
40
1
40
1
10
140.93492741909986
20
139.03015695655438
30
0
10
141.746659234438
20
138.50491844260785
30
0
10
142.162759259615
20
137.52947531783673
30
0
0
SPLINE
5
334
100
AcDbEntity
8
0
100
AcDbSpline
70
0
71
2
72
6
73
3
74
0
42
0.000000001
43
0.0000000001
44
0.0000000001
40
0
40
0
40
0
40
1
40
1
40
1
10
142.162759259615
20
137.52947531783673
30
0
10
142.58567805615431
20
136.56085275256726
30
0
10
142.58567805615431
20
134.7191067799339
30
0
0
SPLINE
5
335
100
AcDbEntity
8
0
100
AcDbSpline
70
0
71
2
72
6
73
3
74
0
42
0.000000001
43
0.0000000001
44
0.0000000001
40
0
40
0
40
0
40
1
40
1
40
1
10
142.58567805615431
20
134.7191067799339
30
0
10
142.58567805615431
20
132.80232571208569
30
0
10
142.1695804151631
20
131.66317127788159
30
0
0
SPLINE
5
336
100
AcDbEntity
8
0
100
AcDbSpline
70
0
71
2
72
6
73
3
74
0
42
0.000000001
43
0.0000000001
44
0.0000000001
40
0
40
0
40
0
40
1
40
1
40
1
10
142.1695804151631
20
131.66317127788159
30
0
10
141.75348277417189
20
130.53083919131848
30
0
10
140.92810626355177
20
129.93738792979812
30
0
0
SPLINE
5
337
100
AcDbEntity
8
0
100
AcDbSpline
70
0
71
2
72
6
73
3
74
0
42
0.000000001
43
0.0000000001
44
0.0000000001
40
0
40
0
40
0
40
1
40
1
40
1
10
140.92810626355177
20
129.93738792979812
30
0
10
140.10955329266554
20
129.34393547618484
30
0
10
139.00450463620191
20
129.34393547618484
30
0
0
SPLINE
5
338
100
AcDbEntity
8
0
100
AcDbSpline
70
0
71
2
72
6
73
3
74
0
42
0.000000001
43
0.0000000001
44
0.0000000001
40
0
40
0
40
0
40
1
40
1
40
1
10
139.00450463620191
20
129.34393547618484
30
0
10
137.83124442425733
20
129.34393547618484
30
0
10
137.08772416440016
20
129.99195717418289
30
0
0
SPLINE
5
339
100
AcDbEntity
8
0
100
AcDbSpline
70
0
71
2
72
6
73
3
74
0
42
0.000000001
43
0.0000000001
44
0.0000000001
40
0
40
0
40
0
40
1
40
1
40
1
10
137.08772416440016
20
129.99195717418289
30
0
10
136.34420390454298
20
130.64680121982192
30
0
10
136.19413609829908
20
131.8268825873146
30
0
0
SPLINE
5
340
100
AcDbEntity
8
0
100
AcDbSpline
70
0
71
2
72
6
73
3
74
0
42
0.000000001
43
0.0000000001
44
0.0000000001
40
0
40
0
40
0
40
1
40
1
40
1
10
141.22142072049147
20
136.24025248134228
30
0
10
141.22142072049147
20
137.29755126082989
30
0
10
140.65525527325636
20
137.91828833663556
30
0
0
SPLINE
5
341
100
AcDbEntity
8
0
100
AcDbSpline
70
0
71
2
72
6
73
3
74
0
42
0.000000001
43
0.0000000001
44
0.0000000001
40
0
40
0
40
0
40
1
40
1
40
1
10
140.65525527325636
20
137.91828833663556
30
0
10
140.09591098156935
20
138.53902481639477
30
0
10
139.30464024868971
20
138.53902481639477
30
0
0
SPLINE
5
342
100
AcDbEntity
8
0
100
AcDbSpline
70
0
71
2
72
6
73
3
74
0
42
0.000000001
43
0.0000000001
44
0.0000000001
40
0
40
0
40
0
40
1
40
1
40
1
10
139.30464024868971
20
138.53902481639477
30
0
10
138.48608727780348
20
138.5390248163948
30
0
10
137.878992513094
20
137.87053905570602
30
0
0
SPLINE
5
343
100
AcDbEntity
8
0
100
AcDbSpline
70
0
71
2
72
6
73
3
74
0
42
0.000000001
43
0.0000000001
44
0.0000000001
40
0
40
0
40
0
40
1
40
1
40
1
10
137.878992513094
20
137.87053905570602
30
0
10
137.27190013257032
20
137.20205329501724
30
0
10
137.27190013257032
20
136.13793335998153
30
0
0
SPLINE
5
344
100
AcDbEntity
8
0
100
AcDbSpline
70
0
71
2
72
6
73
3
74
0
42
0.000000001
43
0.0000000001
44
0.0000000001
40
0
40
0
40
0
40
1
40
1
40
1
10
137.27190013257032
20
136.13793335998153
30
0
10
137.27190013257032
20
135.1829537018547
30
0
10
137.84488673535353
20
134.58268128478622
30
0
0
SPLINE
5
345
100
AcDbEntity
8
0
100
AcDbSpline
70
0
71
2
72
6
73
3
74
0
42
0.000000001
43
0.0000000001
44
0.0000000001
40
0
40
0
40
0
40
1
40
1
40
1
10
137.84488673535353
20
134.58268128478622
30
0
10
138.42469687787062
20
133.98922942721939
30
0
10
139.27053447094923
20
133.98922942721939
30
0
0
SPLINE
5
346
100
AcDbEntity
8
0
100
AcDbSpline
70
0
71
2
72
6
73
3
74
0
42
0.000000001
43
0.0000000001
44
0.0000000001
40
0
40
0
40
0
40
1
40
1
40
1
10
139.27053447094923
20
133.98922942721939
30
0
10
140.12319560376173
20
133.98922942721936
30
0
10
140.66889758435255
20
134.58268128478619
30
0
0
SPLINE
5
347
100
AcDbEntity
8
0
100
AcDbSpline
70
0
71
2
72
6
73
3
74
0
42
0.000000001
43
0.0000000001
44
0.0000000001
40
0
40
0
40
0
40
1
40
1
40
1
10
140.66889758435255
20
134.58268128478619
30
0
10
141.22142072049147
20
135.18295370185467
30
0
10
141.22142072049147
20
136.24025248134228
30
0
0
LINE
5
348
100
AcDbEntity
8
0
100
AcDbLine
10
163.92946715680128
20
129.51446794116589
30
0
11
162.70164008465773
21
129.51446794116589
31
0
0
LINE
5
349
100
AcDbEntity
8
0
100
AcDbLine
10
162.70164008465773
20
129.51446794116589
30
0
11
162.70164008465773
21
137.33847879016491
31
0
0
SPLINE
5
350
100
AcDbEntity
8
0
100
AcDbSpline
70
0
71
2
72
6
73
3
74
0
42
0.000000001
43
0.0000000001
44
0.0000000001
40
0
40
0
40
0
40
1
40
1
40
1
10
162.70164008465773
20
137.33847879016491
30
0
10
162.25825305310255
20
136.91555939757916
30
0
10
161.53520102826124
20
136.4926400049934
30
0
0
SPLINE
5
351
100
AcDbEntity
8
0
100
AcDbSpline
70
0
71
2
72
6
73
3
74
0
42
0.000000001
43
0.0000000001
44
0.0000000001
40
0
40
0
40
0
40
1
40
1
40
1
10
161.53520102826124
20
136.4926400049934
30
0
10
160.81896300641066
20
136.06972061240765
30
0
10
160.24597640362745
20
135.85826061809155
30
0
0
LINE
5
352
100
AcDbEntity
8
0
100
AcDbLine
10
160.24597640362745
20
135.85826061809155
30
0
11
160.24597640362745
21
137.04516373717877
31
0
0
SPLINE
5
353
100
AcDbEntity
8
0
100
AcDbSpline
70
0
71
2
72
6
73
3
74
0
42
0.000000001
43
0.0000000001
44
0.0000000001
40
0
40
0
40
0
40
1
40
1
40
1
10
160.24597640362745
20
137.04516373717877
30
0
10
161.27598758069044
20
137.52947472179028
30
0
10
162.04679484692579
20
138.2184245451698
30
0
0
SPLINE
5
354
100
AcDbEntity
8
0
100
AcDbSpline
70
0
71
2
72
6
73
3
74
0
42
0.000000001
43
0.0000000001
44
0.0000000001
40
0
40
0
40
0
40
1
40
1
40
1
10
162.04679484692579
20
138.2184245451698
30
0
10
162.81759734478956
20
138.90737377250286
30
0
10
163.13819880810743
20
139.55539606654736
30
0
0
LINE
5
355
100
AcDbEntity
8
0
100
AcDbLine
10
163.13819880810743
20
139.55539606654736
30
0
11
163.92946715680128
21
139.55539606654736
31
0
0
LINE
5
356
100
AcDbEntity
8
0
100
AcDbLine
10
163.92946715680128
20
139.55539606654736
30
0
11
163.92946715680128
21
129.51446794116589
31
0
0
SPLINE
5
357
100
AcDbEntity
8
0
100
AcDbSpline
70
0
71
2
72
6
73
3
74
0
42
0.000000001
43
0.0000000001
44
0.0000000001
40
0
40
0
40
0
40
1
40
1
40
1
10
167.07408423748976
20
134.44625519359204
30
0
10
167.07408423748976
20
136.21978901469799
30
0
10
167.4356126340962
20
137.29755126082989
30
0
0
SPLINE
5
358
100
AcDbEntity
8
0
100
AcDbSpline
70
0
71
2
72
6
73
3
74
0
42
0.000000001
43
0.0000000001
44
0.0000000001
40
0
40
0
40
0
40
1
40
1
40
1
10
167.4356126340962
20
137.29755126082989
30
0
10
167.80395980206495
20
138.38213525855633
30
0
10
168.52019782391554
20
138.96876536452862
30
0
0
SPLINE
5
359
100
AcDbEntity
8
0
100
AcDbSpline
70
0
71
2
72
6
73
3
74
0
42
0.000000001
43
0.0000000001
44
0.0000000001
40
0
40
0
40
0
40
1
40
1
40
1
10
168.52019782391554
20
138.96876536452862
30
0
10
169.24324984875685
20
139.55539606654736
30
0
10
170.33465857831007
20
139.55539606654736
30
0
0
SPLINE
5
360
100
AcDbEntity
8
0
100
AcDbSpline
70
0
71
2
72
6
73
3
74
0
42
0.000000001
43
0.0000000001
44
0.0000000001
40
0
40
0
40
0
40
1
40
1
40
1
10
170.33465857831007
20
139.55539606654736
30
0
10
171.13956923810011
20
139.55539606654736
30
0
10
171.74666400280958
20
139.22797463977429
30
0
0
SPLINE
5
361
100
AcDbEntity
8
0
100
AcDbSpline
70
0
71
2
72
6
73
3
74
0
42
0.000000001
43
0.0000000001
44
0.0000000001
40
0
40
0
40
0
40
1
40
1
40
1
10
171.74666400280958
20
139.22797463977429
30
0
10
172.35375876751905
20
138.90737436854931
30
0
10
172.74939055768019
20
138.29345844829174
30
0
0
SPLINE
5
362
100
AcDbEntity
8
0
100
AcDbSpline
70
0
71
2
72
6
73
3
74
0
42
0.000000001
43
0.0000000001
44
0.0000000001
40
0
40
0
40
0
40
1
40
1
40
1
10
172.74939055768019
20
138.29345844829174
30
0
10
173.1450271162129
20
137.68636427962872
30
0
10
173.37012763348585
20
136.80641912067028
30
0
0
SPLINE
5
363
100
AcDbEntity
8
0
100
AcDbSpline
70
0
71
2
72
6
73
3
74
0
42
0.000000001
43
0.0000000001
44
0.0000000001
40
0
40
0
40
0
40
1
40
1
40
1
10
173.37012763348585
20
136.80641912067028
30
0
10
173.5952281507588
20
135.93329511725995
30
0
10
173.5952281507588
20
134.44625519359204
30
0
0
SPLINE
5
364
100
AcDbEntity
8
0
100
AcDbSpline
70
0
71
2
72
6
73
3
74
0
42
0.000000001
43
0.0000000001
44
0.0000000001
40
0
40
0
40
0
40
1
40
1
40
1
10
173.5952281507588
20
134.44625519359204
30
0
10
173.5952281507588
20
132.68636427962872
30
0
10
173.23370452252394
20
131.60178087794873
30
0
0
SPLINE
5
365
100
AcDbEntity
8
0
100
AcDbSpline
70
0
71
2
72
6
73
3
74
0
42
0.000000001
43
0.0000000001
44
0.0000000001
40
0
40
0
40
0
40
1
40
1
40
1
10
173.23370452252394
20
131.60178087794873
30
0
10
172.87217612591749
20
130.52401803577038
30
0
10
172.1491193327046
20
129.93056677425
30
0
0
SPLINE
5
366
100
AcDbEntity
8
0
100
AcDbSpline
70
0
71
2
72
6
73
3
74
0
42
0.000000001
43
0.0000000001
44
0.0000000001
40
0
40
0
40
0
40
1
40
1
40
1
10
172.1491193327046
20
129.93056677425
30
0
10
171.43288131085401
20
129.34393547618481
30
0
10
170.33465857831007
20
129.34393547618481
30
0
0
SPLINE
5
367
100
AcDbEntity
8
0
100
AcDbSpline
70
0
71
2
72
6
73
3
74
0
42
0.000000001
43
0.0000000001
44
0.0000000001
40
0
40
0
40
0
40
1
40
1
40
1
10
170.33465857831007
20
129.34393547618481
30
0
10
168.88854499188429
20
129.34393547618481
30
0
10
168.06316848126417
20
130.38077019298169
30
0
0
SPLINE
5
368
100
AcDbEntity
8
0
100
AcDbSpline
70
0
71
2
72
6
73
3
74
0
42
0.000000001
43
0.0000000001
44
0.0000000001
40
0
40
0
40
0
40
1
40
1
40
1
10
168.06316848126417
20
130.38077019298169
30
0
10
167.07408423748976
20
131.62906550014111
30
0
10
167.07408423748976
20
134.44625519359204
30
0
0
SPLINE
5
369
100
AcDbEntity
8
0
100
AcDbSpline
70
0
71
2
72
6
73
3
74
0
42
0.000000001
43
0.0000000001
44
0.0000000001
40
0
40
0
40
0
40
1
40
1
40
1
10
168.33601947155958
20
134.44625519359204
30
0
10
168.33601947155958
20
131.98377274119946
30
0
10
168.90901084271437
20
131.16521857822033
30
0
0
SPLINE
5
370
100
AcDbEntity
8
0
100
AcDbSpline
70
0
71
2
72
6
73
3
74
0
42
0.000000001
43
0.0000000001
44
0.0000000001
40
0
40
0
40
0
40
1
40
1
40
1
10
168.90901084271437
20
131.16521857822033
30
0
10
169.48881621685987
20
130.3534855707893
30
0
10
170.33465857831007
20
130.3534855707893
30
0
0
SPLINE
5
371
100
AcDbEntity
8
0
100
AcDbSpline
70
0
71
2
72
6
73
3
74
0
42
0.000000001
43
0.0000000001
44
0.0000000001
40
0
40
0
40
0
40
1
40
1
40
1
10
170.33465857831007
20
130.3534855707893
30
0
10
171.18049617138868
20
130.3534855707893
30
0
10
171.75348277417189
20
131.17203973376843
30
0
0
SPLINE
5
372
100
AcDbEntity
8
0
100
AcDbSpline
70
0
71
2
72
6
73
3
74
0
42
0.000000001
43
0.0000000001
44
0.0000000001
40
0
40
0
40
0
40
1
40
1
40
1
10
171.75348277417189
20
131.17203973376843
30
0
10
172.33329291668898
20
131.99059389674755
30
0
10
172.33329291668898
20
134.44625519359204
30
0
0
SPLINE
5
373
100
AcDbEntity
8
0
100
AcDbSpline
70
0
71
2
72
6
73
3
74
0
42
0.000000001
43
0.0000000001
44
0.0000000001
40
0
40
0
40
0
40
1
40
1
40
1
10
172.33329291668898
20
134.44625519359204
30
0
10
172.33329291668898
20
136.91555939757916
30
0
10
171.75348277417189
20
137.72729240501019
30
0
0
SPLINE
5
374
100
AcDbEntity
8
0
100
AcDbSpline
70
0
71
2
72
6
73
3
74
0
42
0.000000001
43
0.0000000001
44
0.0000000001
40
0
40
0
40
0
40
1
40
1
40
1
10
171.75348277417189
20
137.72729240501019
30
0
10
171.18049617138868
20
138.53902481639477
30
0
10
170.32101626721388
20
138.53902481639477
30
0
0
SPLINE
5
375
100
AcDbEntity
8
0
100
AcDbSpline
70
0
71
2
72
6
73
3
74
0
42
0.000000001
43
0.0000000001
44
0.0000000001
40
0
40
0
40
0
40
1
40
1
40
1
10
170.32101626721388
20
138.53902481639477
30
0
10
169.47517390576368
20
138.53902481639477
30
0
10
168.97039885846144
20
137.82279037082287
30
0
0
SPLINE
5
376
100
AcDbEntity
8
0
100
AcDbSpline
70
0
71
2
72
6
73
3
74
0
42
0.000000001
43
0.0000000001
44
0.0000000001
40
0
40
0
40
0
40
1
40
1
40
1
10
168.97039885846144
20
137.82279037082287
30
0
10
168.33601947155958
20
136.90873824203106
30
0
10
168.33601947155958
20
134.44625519359204
30
0
0
LINE
5
377
100
AcDbEntity
8
0
100
AcDbLine
10
194.99358649579054
20
129.51446794116589
30
0
11
193.76575942364698
21
129.51446794116589
31
0
0
LINE
5
378
100
AcDbEntity
8
0
100
AcDbLine
10
193.76575942364698
20
129.51446794116589
30
0
11
193.76575942364698
21
137.33847879016491
31
0
0
SPLINE
5
379
100
AcDbEntity
8
0
100
AcDbSpline
70
0
71
2
72
6
73
3
74
0
42
0.000000001
43
0.0000000001
44
0.0000000001
40
0
40
0
40
0
40
1
40
1
40
1
10
193.76575942364698
20
137.33847879016491
30
0
10
193.32237716046339
20
136.91555939757916
30
0
10
192.5993203672505
20
136.4926400049934
30
0
0
SPLINE
5
380
100
AcDbEntity
8
0
100
AcDbSpline
70
0
71
2
72
6
73
3
74
0
42
0.000000001
43
0.0000000001
44
0.0000000001
40
0
40
0
40
0
40
1
40
1
40
1
10
192.5993203672505
20
136.4926400049934
30
0
10
191.88308234539991
20
136.06972061240765
30
0
10
191.31009574261671
20
135.85826061809155
30
0
0
LINE
5
381
100
AcDbEntity
8
0
100
AcDbLine
10
191.31009574261671
20
135.85826061809155
30
0
11
191.31009574261671
21
137.04516373717877
31
0
0
SPLINE
5
382
100
AcDbEntity
8
0
100
AcDbSpline
70
0
71
2
72
6
73
3
74
0
42
0.000000001
43
0.0000000001
44
0.0000000001
40
0
40
0
40
0
40
1
40
1
40
1
10
191.31009574261671
20
137.04516373717877
30
0
10
192.34011168805128
20
137.52947472179028
30
0
10
193.11090941754347
20
138.2184245451698
30
0
0
SPLINE
5
383
100
AcDbEntity
8
0
100
AcDbSpline
70
0
71
2
72
6
73
3
74
0
42
0.000000001
43
0.0000000001
44
0.0000000001
40
0
40
0
40
0
40
1
40
1
40
1
10
193.11090941754347
20
138.2184245451698
30
0
10
193.88171668377882
20
138.90737377250286
30
0
10
194.20232291546827
20
139.55539606654736
30
0
0
LINE
5
384
100
AcDbEntity
8
0
100
AcDbLine
10
194.20232291546827
20
139.55539606654736
30
0
11
194.99358649579054
21
139.55539606654736
31
0
0
LINE
5
385
100
AcDbEntity
8
0
100
AcDbLine
10
194.99358649579054
20
139.55539606654736
30
0
11
194.99358649579054
21
129.51446794116589
31
0
0
LINE
5
386
100
AcDbEntity
8
0
100
AcDbLine
10
202.7630281004048
20
129.51446794116589
30
0
11
201.53519149151808
21
129.51446794116589
31
0
0
LINE
5
387
100
AcDbEntity
8
0
100
AcDbLine
10
201.53519149151808
20
129.51446794116589
30
0
11
201.53519149151808
21
137.33847879016491
31
0
0
SPLINE
5
388
100
AcDbEntity
8
0
100
AcDbSpline
70
0
71
2
72
6
73
3
74
0
42
0.000000001
43
0.0000000001
44
0.0000000001
40
0
40
0
40
0
40
1
40
1
40
1
10
201.53519149151808
20
137.33847879016491
30
0
10
201.09180922833448
20
136.91555939757916
30
0
10
200.36875243512159
20
136.4926400049934
30
0
0
SPLINE
5
389
100
AcDbEntity
8
0
100
AcDbSpline
70
0
71
2
72
6
73
3
74
0
42
0.000000001
43
0.0000000001
44
0.0000000001
40
0
40
0
40
0
40
1
40
1
40
1
10
200.36875243512159
20
136.4926400049934
30
0
10
199.65252395001417
20
136.06972061240765
30
0
10
199.0795278104878
20
135.85826061809155
30
0
0
LINE
5
390
100
AcDbEntity
8
0
100
AcDbLine
10
199.0795278104878
20
135.85826061809155
30
0
11
199.0795278104878
21
137.04516373717877
31
0
0
SPLINE
5
391
100
AcDbEntity
8
0
100
AcDbSpline
70
0
71
2
72
6
73
3
74
0
42
0.000000001
43
0.0000000001
44
0.0000000001
40
0
40
0
40
0
40
1
40
1
40
1
10
199.0795278104878
20
137.04516373717877
30
0
10
200.10954375592237
20
137.52947472179028
30
0
10
200.88035102215773
20
138.2184245451698
30
0
0
SPLINE
5
392
100
AcDbEntity
8
0
100
AcDbSpline
70
0
71
2
72
6
73
3
74
0
42
0.000000001
43
0.0000000001
44
0.0000000001
40
0
40
0
40
0
40
1
40
1
40
1
10
200.88035102215773
20
138.2184245451698
30
0
10
201.65115828839308
20
138.90737377250286
30
0
10
201.97175498333937
20
139.55539606654736
30
0
0
LINE
5
393
100
AcDbEntity
8
0
100
AcDbLine
10
201.97175498333937
20
139.55539606654736
30
0
11
202.7630281004048
21
139.55539606654736
31
0
0
LINE
5
394
100
AcDbEntity
8
0
100
AcDbLine
10
202.7630281004048
20
139.55539606654736
30
0
11
202.7630281004048
21
129.51446794116589
31
0
0
LINE
5
395
100
AcDbEntity
8
0
100
AcDbLine
10
118.32619235953912
20
-131.75231761011321
30
0
11
117.09836111507043
21
-131.75231761011321
31
0
0
LINE
5
396
100
AcDbEntity
8
0
100
AcDbLine
10
117.09836111507043
20
-131.75231761011321
30
0
11
117.09836111507043
21
-123.92830676111419
31
0
0
SPLINE
5
397
100
AcDbEntity
8
0
100
AcDbSpline
70
0
71
2
72
6
73
3
74
0
42
0.000000001
43
0.0000000001
44
0.0000000001
40
0
40
0
40
0
40
1
40
1
40
1
10
117.09836111507043
20
-123.92830676111419
30
0
10
116.65497795781717
20
-124.35122615369994
30
0
10
115.93192205867395
20
-124.77414554628569
30
0
0
SPLINE
5
398
100
AcDbEntity
8
0
100
AcDbSpline
70
0
71
2
72
6
73
3
74
0
42
0.000000001
43
0.0000000001
44
0.0000000001
40
0
40
0
40
0
40
1
40
1
40
1
10
115.93192205867395
20
-124.77414554628569
30
0
10
115.21568731507882
20
-125.19706493887145
30
0
10
114.64269952020273
20
-125.40852493318755
30
0
0
LINE
5
399
100
AcDbEntity
8
0
100
AcDbLine
10
114.64269952020273
20
-125.40852493318755
30
0
11
114.64269952020273
21
-124.22162181410033
31
0
0
SPLINE
5
400
100
AcDbEntity
8
0
100
AcDbSpline
70
0
71
2
72
6
73
3
74
0
42
0.000000001
43
0.0000000001
44
0.0000000001
40
0
40
0
40
0
40
1
40
1
40
1
10
114.64269952020273
20
-124.22162181410033
30
0
10
115.6727130814515
20
-123.73731082948882
30
0
10
116.44351796350107
20
-123.0483610061093
30
0
0
SPLINE
5
401
100
AcDbEntity
8
0
100
AcDbSpline
70
0
71
2
72
6
73
3
74
0
42
0.000000001
43
0.0000000001
44
0.0000000001
40
0
40
0
40
0
40
1
40
1
40
1
10
116.44351796350107
20
-123.0483610061093
30
0
10
117.21432314357385
20
-122.35941177877623
30
0
10
117.53492341479883
20
-121.71138948473174
30
0
0
LINE
5
402
100
AcDbEntity
8
0
100
AcDbLine
10
117.53492341479883
20
-121.71138948473174
30
0
11
118.32619235953912
21
-121.71138948473174
31
0
0
LINE
5
403
100
AcDbEntity
8
0
100
AcDbLine
10
118.32619235953912
20
-121.71138948473174
30
0
11
118.32619235953912
21
-131.75231761011321
31
0
0
LINE
5
404
100
AcDbEntity
8
0
100
AcDbLine
10
127.92373643359765
20
-130.57223624262053
30
0
11
127.92373643359765
21
-131.75231761011321
31
0
0
LINE
5
405
100
AcDbEntity
8
0
100
AcDbLine
10
127.92373643359765
20
-131.75231761011321
30
0
11
121.31391332587823
21
-131.75231761011321
31
0
0
SPLINE
5
406
100
AcDbEntity
8
0
100
AcDbSpline
70
0
71
2
72
6
73
3
74
0
42
0.000000001
43
0.0000000001
44
0.0000000001
40
0
40
0
40
0
40
1
40
1
40
1
10
121.31391332587823
20
-131.75231761011321
30
0
10
121.30027101478204
20
-131.30893415483672
30
0
10
121.45716057262048
20
-130.8996576693936
30
0
0
SPLINE
5
407
100
AcDbEntity
8
0
100
AcDbSpline
70
0
71
2
72
6
73
3
74
0
42
0.000000001
43
0.0000000001
44
0.0000000001
40
0
40
0
40
0
40
1
40
1
40
1
10
121.45716057262048
20
-130.8996576693936
30
0
10
121.7095480962716
20
-130.22435015711028
30
0
10
122.26207182845697
20
-129.56950730356414
30
0
0
SPLINE
5
408
100
AcDbEntity
8
0
100
AcDbSpline
70
0
71
2
72
6
73
3
74
0
42
0.000000001
43
0.0000000001
44
0.0000000001
40
0
40
0
40
0
40
1
40
1
40
1
10
122.26207182845697
20
-129.56950730356414
30
0
10
122.82141671619043
20
-128.91466445001799
30
0
10
123.87189493617639
20
-128.0551821616574
30
0
0
SPLINE
5
409
100
AcDbEntity
8
0
100
AcDbSpline
70
0
71
2
72
6
73
3
74
0
42
0.000000001
43
0.0000000001
44
0.0000000001
40
0
40
0
40
0
40
1
40
1
40
1
10
123.87189493617639
20
-128.0551821616574
30
0
10
125.50218091449365
20
-126.71821123632628
30
0
10
126.07516870936975
20
-125.94058519872863
30
0
0
SPLINE
5
410
100
AcDbEntity
8
0
100
AcDbSpline
70
0
71
2
72
6
73
3
74
0
42
0.000000001
43
0.0000000001
44
0.0000000001
40
0
40
0
40
0
40
1
40
1
40
1
10
126.07516870936975
20
-125.94058519872863
30
0
10
126.64815650424585
20
-125.15613740953643
30
0
10
126.64815650424585
20
-124.46036643060881
30
0
0
SPLINE
5
411
100
AcDbEntity
8
0
100
AcDbSpline
70
0
71
2
72
6
73
3
74
0
42
0.000000001
43
0.0000000001
44
0.0000000001
40
0
40
0
40
0
40
1
40
1
40
1
10
126.64815650424585
20
-124.46036643060881
30
0
10
126.64815650424585
20
-123.73048967394071
30
0
10
126.12291679820642
20
-123.23253578218657
30
0
0
SPLINE
5
412
100
AcDbEntity
8
0
100
AcDbSpline
70
0
71
2
72
6
73
3
74
0
42
0.000000001
43
0.0000000001
44
0.0000000001
40
0
40
0
40
0
40
1
40
1
40
1
10
126.12291679820642
20
-123.23253578218657
30
0
10
125.60449943980798
20
-122.72776073488433
30
0
10
124.76548300227746
20
-122.72776073488433
30
0
0
SPLINE
5
413
100
AcDbEntity
8
0
100
AcDbSpline
70
0
71
2
72
6
73
3
74
0
42
0.000000001
43
0.0000000001
44
0.0000000001
40
0
40
0
40
0
40
1
40
1
40
1
10
124.76548300227746
20
-122.72776073488433
30
0
10
123.87871609172448
20
-122.72776073488433
30
0
10
123.34665523013696
20
-123.2598210004254
30
0
0
SPLINE
5
414
100
AcDbEntity
8
0
100
AcDbSpline
70
0
71
2
72
6
73
3
74
0
42
0.000000001
43
0.0000000001
44
0.0000000001
40
0
40
0
40
0
40
1
40
1
40
1
10
123.34665523013696
20
-123.2598210004254
30
0
10
122.81459556064233
20
-123.79188126596648
30
0
10
122.80777440509424
20
-124.73321801695067
30
0
0
LINE
5
415
100
AcDbEntity
8
0
100
AcDbLine
10
122.80777440509424
20
-124.73321801695067
30
0
11
121.54583678683862
21
-124.60361367735106
31
0
0
SPLINE
5
416
100
AcDbEntity
8
0
100
AcDbSpline
70
0
71
2
72
6
73
3
74
0
42
0.000000001
43
0.0000000001
44
0.0000000001
40
0
40
0
40
0
40
1
40
1
40
1
10
121.54583678683862
20
-124.60361367735106
30
0
10
121.67544112643823
20
-123.19160825285155
30
0
10
122.52128050765619
20
-122.45490974458892
30
0
0
SPLINE
5
417
100
AcDbEntity
8
0
100
AcDbSpline
70
0
71
2
72
6
73
3
74
0
42
0.000000001
43
0.0000000001
44
0.0000000001
40
0
40
0
40
0
40
1
40
1
40
1
10
122.52128050765619
20
-122.45490974458892
30
0
10
123.36711988887414
20
-121.71138948473174
30
0
10
124.79276762446985
20
-121.71138948473174
30
0
0
SPLINE
5
418
100
AcDbEntity
8
0
100
AcDbSpline
70
0
71
2
72
6
73
3
74
0
42
0.000000001
43
0.0000000001
44
0.0000000001
40
0
40
0
40
0
40
1
40
1
40
1
10
124.79276762446985
20
-121.71138948473174
30
0
10
126.23205767116174
20
-121.71138948473174
30
0
10
127.07107649287805
20
-122.50948018106656
30
0
0
SPLINE
5
419
100
AcDbEntity
8
0
100
AcDbSpline
70
0
71
2
72
6
73
3
74
0
42
0.000000001
43
0.0000000001
44
0.0000000001
40
0
40
0
40
0
40
1
40
1
40
1
10
127.07107649287805
20
-122.50948018106656
30
0
10
127.91009293040857
20
-123.30756968530851
30
0
10
127.91009293040857
20
-124.48765164884763
30
0
0
SPLINE
5
420
100
AcDbEntity
8
0
100
AcDbSpline
70
0
71
2
72
6
73
3
74
0
42
0.000000001
43
0.0000000001
44
0.0000000001
40
0
40
0
40
0
40
1
40
1
40
1
10
127.91009293040857
20
-124.48765164884763
30
0
10
127.91009293040857
20
-125.08792466196256
30
0
10
127.66452656230554
20
-125.66773361238675
30
0
0
SPLINE
5
421
100
AcDbEntity
8
0
100
AcDbSpline
70
0
71
2
72
6
73
3
74
0
42
0.000000001
43
0.0000000001
44
0.0000000001
40
0
40
0
40
0
40
1
40
1
40
1
10
127.66452656230554
20
-125.66773361238675
30
0
10
127.41896138629541
20
-126.24754256281095
30
0
10
126.84597359141931
20
-126.8887431052609
30
0
0
SPLINE
5
422
100
AcDbEntity
8
0
100
AcDbSpline
70
0
71
2
72
6
73
3
74
0
42
0.000000001
43
0.0000000001
44
0.0000000001
40
0
40
0
40
0
40
1
40
1
40
1
10
126.84597359141931
20
-126.8887431052609
30
0
10
126.27980695209131
20
-127.52994364771087
30
0
10
124.95647774180993
20
-128.64863401922423
30
0
0
SPLINE
5
423
100
AcDbEntity
8
0
100
AcDbSpline
70
0
71
2
72
6
73
3
74
0
42
0.000000001
43
0.0000000001
44
0.0000000001
40
0
40
0
40
0
40
1
40
1
40
1
10
124.95647774180993
20
-128.64863401922423
30
0
10
123.85143027743921
20
-129.57632845911223
30
0
10
123.53765116176233
20
-129.9105710414334
30
0
0
SPLINE
5
424
100
AcDbEntity
8
0
100
AcDbSpline
70
0
71
2
72
6
73
3
74
0
42
0.000000001
43
0.0000000001
44
0.0000000001
40
0
40
0
40
0
40
1
40
1
40
1
10
123.53765116176233
20
-129.9105710414334
30
0
10
123.22387204608545
20
-130.23799246820647
30
0
10
123.01923380336389
20
-130.57223624262053
30
0
0
LINE
5
425
100
AcDbEntity
8
0
100
AcDbLine
10
123.01923380336389
20
-130.57223624262053
30
0
11
127.92373643359765
21
-130.57223624262053
31
0
0
LINE
5
426
100
AcDbEntity
8
0
100
AcDbLine
10
145.50900326213463
20
-131.75231761011321
30
0
11
144.28117142161949
21
-131.75231761011321
31
0
0
LINE
5
427
100
AcDbEntity
8
0
100
AcDbLine
10
144.28117142161949
20
-131.75231761011321
30
0
11
144.28117142161949
21
-123.92830676111417
31
0
0
SPLINE
5
428
100
AcDbEntity
8
0
100
AcDbSpline
70
0
71
2
72
6
73
3
74
0
42
0.000000001
43
0.0000000001
44
0.0000000001
40
0
40
0
40
0
40
1
40
1
40
1
10
144.28117142161949
20
-123.92830676111417
30
0
10
143.8377891584359
20
-124.35122615369993
30
0
10
143.11473236522301
20
-124.77414554628568
30
0
0
SPLINE
5
429
100
AcDbEntity
8
0
100
AcDbSpline
70
0
71
2
72
6
73
3
74
0
42
0.000000001
43
0.0000000001
44
0.0000000001
40
0
40
0
40
0
40
1
40
1
40
1
10
143.11473236522301
20
-124.77414554628568
30
0
10
142.39849672755821
20
-125.19706493887143
30
0
10
141.82551012477501
20
-125.40852493318754
30
0
0
LINE
5
430
100
AcDbEntity
8
0
100
AcDbLine
10
141.82551012477501
20
-125.40852493318754
30
0
11
141.82551012477501
21
-124.22162181410032
31
0
0
SPLINE
5
431
100
AcDbEntity
8
0
100
AcDbSpline
70
0
71
2
72
6
73
3
74
0
42
0.000000001
43
0.0000000001
44
0.0000000001
40
0
40
0
40
0
40
1
40
1
40
1
10
141.82551012477501
20
-124.22162181410032
30
0
10
142.85552368602379
20
-123.73731082948881
30
0
10
143.62632856807335
20
-123.04836100610929
30
0
0
SPLINE
5
432
100
AcDbEntity
8
0
100
AcDbSpline
70
0
71
2
72
6
73
3
74
0
42
0.000000001
43
0.0000000001
44
0.0000000001
40
0
40
0
40
0
40
1
40
1
40
1
10
143.62632856807335
20
-123.04836100610929
30
0
10
144.39713345012291
20
-122.35941177877622
30
0
10
144.71773252925499
20
-121.71138948473173
30
0
0
LINE
5
433
100
AcDbEntity
8
0
100
AcDbLine
10
144.71773252925499
20
-121.71138948473173
30
0
11
145.50900326213463
21
-121.71138948473173
31
0
0
LINE
5
434
100
AcDbEntity
8
0
100
AcDbLine
10
145.50900326213463
20
-121.71138948473173
30
0
11
145.50900326213463
21
-131.75231761011321
31
0
0
LINE
5
435
100
AcDbEntity
8
0
100
AcDbLine
10
148.66043672999962
20
-129.11248153719146
30
0
11
149.88826857051475
21
-128.94877022775847
31
0
0
SPLINE
5
436
100
AcDbEntity
8
0
100
AcDbSpline
70
0
71
2
72
6
73
3
74
0
42
0.000000001
43
0.0000000001
44
0.0000000001
40
0
40
0
40
0
40
1
40
1
40
1
10
149.88826857051475
20
-128.94877022775847
30
0
10
150.09972677669151
20
-129.99242729219634
30
0
10
150.60450182399376
20
-130.45627421411709
30
0
0
SPLINE
5
437
100
AcDbEntity
8
0
100
AcDbSpline
70
0
71
2
72
6
73
3
74
0
42
0.000000001
43
0.0000000001
44
0.0000000001
40
0
40
0
40
0
40
1
40
1
40
1
10
150.60450182399376
20
-130.45627421411709
30
0
10
151.1160980268441
20
-130.91329998048977
30
0
10
151.84597597560509
20
-130.91329998048977
30
0
0
SPLINE
5
438
100
AcDbEntity
8
0
100
AcDbSpline
70
0
71
2
72
6
73
3
74
0
42
0.000000001
43
0.0000000001
44
0.0000000001
40
0
40
0
40
0
40
1
40
1
40
1
10
151.84597597560509
20
-130.91329998048977
30
0
10
152.71227941951378
20
-130.91329998048977
30
0
10
153.30573187312706
20
-130.31302756342129
30
0
0
SPLINE
5
439
100
AcDbEntity
8
0
100
AcDbSpline
70
0
71
2
72
6
73
3
74
0
42
0.000000001
43
0.0000000001
44
0.0000000001
40
0
40
0
40
0
40
1
40
1
40
1
10
153.30573187312706
20
-130.31302756342129
30
0
10
153.90600309810264
20
-129.71275395425991
30
0
10
153.90600309810264
20
-128.82598763975338
30
0
0
SPLINE
5
440
100
AcDbEntity
8
0
100
AcDbSpline
70
0
71
2
72
6
73
3
74
0
42
0.000000001
43
0.0000000001
44
0.0000000001
40
0
40
0
40
0
40
1
40
1
40
1
10
153.90600309810264
20
-128.82598763975338
30
0
10
153.90600309810264
20
-127.98014825853542
30
0
10
153.35347757777794
20
-127.4344462779446
30
0
0
SPLINE
5
441
100
AcDbEntity
8
0
100
AcDbSpline
70
0
71
2
72
6
73
3
74
0
42
0.000000001
43
0.0000000001
44
0.0000000001
40
0
40
0
40
0
40
1
40
1
40
1
10
153.35347757777794
20
-127.4344462779446
30
0
10
152.80095444163902
20
-126.88192194971279
30
0
10
151.94829569301231
20
-126.88192194971279
30
0
0
SPLINE
5
442
100
AcDbEntity
8
0
100
AcDbSpline
70
0
71
2
72
6
73
3
74
0
42
0.000000001
43
0.0000000001
44
0.0000000001
40
0
40
0
40
0
40
1
40
1
40
1
10
151.94829569301231
20
-126.88192194971279
30
0
10
151.60040960750206
20
-126.88192194971279
30
0
10
151.08199224910362
20
-127.0183474448605
30
0
0
LINE
5
443
100
AcDbEntity
8
0
100
AcDbLine
10
151.08199224910362
20
-127.0183474448605
30
0
11
151.21841774425133
21
-125.9405851987286
31
0
0
SPLINE
5
444
100
AcDbEntity
8
0
100
AcDbSpline
70
0
71
2
72
6
73
3
74
0
42
0.000000001
43
0.0000000001
44
0.0000000001
40
0
40
0
40
0
40
1
40
1
40
1
10
151.21841774425133
20
-125.9405851987286
30
0
10
151.34120092830284
20
-125.95422810587124
30
0
10
151.41623602351768
20
-125.95422810587124
30
0
0
SPLINE
5
445
100
AcDbEntity
8
0
100
AcDbSpline
70
0
71
2
72
6
73
3
74
0
42
0.000000001
43
0.0000000001
44
0.0000000001
40
0
40
0
40
0
40
1
40
1
40
1
10
151.41623602351768
20
-125.95422810587124
30
0
10
152.20068321666344
20
-125.95422810587124
30
0
10
152.8282414480172
20
-125.54495102438167
30
0
0
SPLINE
5
446
100
AcDbEntity
8
0
100
AcDbSpline
70
0
71
2
72
6
73
3
74
0
42
0.000000001
43
0.0000000001
44
0.0000000001
40
0
40
0
40
0
40
1
40
1
40
1
10
152.8282414480172
20
-125.54495102438167
30
0
10
153.45579729518516
20
-125.13567394289211
30
0
10
153.45579729518516
20
-124.28301400217251
30
0
0
SPLINE
5
447
100
AcDbEntity
8
0
100
AcDbSpline
70
0
71
2
72
6
73
3
74
0
42
0.000000001
43
0.0000000001
44
0.0000000001
40
0
40
0
40
0
40
1
40
1
40
1
10
153.45579729518516
20
-124.28301400217251
30
0
10
153.45579729518516
20
-123.60770708593563
30
0
10
152.99877272090538
20
-123.16432363065914
30
0
0
SPLINE
5
448
100
AcDbEntity
8
0
100
AcDbSpline
70
0
71
2
72
6
73
3
74
0
42
0.000000001
43
0.0000000001
44
0.0000000001
40
0
40
0
40
0
40
1
40
1
40
1
10
152.99877272090538
20
-123.16432363065914
30
0
10
152.5417457624398
20
-122.72094017538265
30
0
10
151.8186913534127
20
-122.72094017538265
30
0
0
SPLINE
5
449
100
AcDbEntity
8
0
100
AcDbSpline
70
0
71
2
72
6
73
3
74
0
42
0.000000001
43
0.0000000001
44
0.0000000001
40
0
40
0
40
0
40
1
40
1
40
1
10
151.8186913534127
20
-122.72094017538265
30
0
10
151.10245571574791
20
-122.72094017538267
30
0
10
150.62496529063804
20
-123.17114478620725
30
0
0
SPLINE
5
450
100
AcDbEntity
8
0
100
AcDbSpline
70
0
71
2
72
6
73
3
74
0
42
0.000000001
43
0.0000000001
44
0.0000000001
40
0
40
0
40
0
40
1
40
1
40
1
10
150.62496529063804
20
-123.17114478620725
30
0
10
150.14747724971397
20
-123.62134939703184
30
0
10
150.01105175456627
20
-124.52175861868101
30
0
0
LINE
5
451
100
AcDbEntity
8
0
100
AcDbLine
10
150.01105175456627
20
-124.52175861868101
30
0
11
148.78321991405113
21
-124.30347746881681
31
0
0
SPLINE
5
452
100
AcDbEntity
8
0
100
AcDbSpline
70
0
71
2
72
6
73
3
74
0
42
0.000000001
43
0.0000000001
44
0.0000000001
40
0
40
0
40
0
40
1
40
1
40
1
10
148.78321991405113
20
-124.30347746881681
30
0
10
149.00832281550987
20
-123.06882566484647
30
0
10
149.80641231975181
20
-122.39351874860959
30
0
0
SPLINE
5
453
100
AcDbEntity
8
0
100
AcDbSpline
70
0
71
2
72
6
73
3
74
0
42
0.000000001
43
0.0000000001
44
0.0000000001
40
0
40
0
40
0
40
1
40
1
40
1
10
149.80641231975181
20
-122.39351874860959
30
0
10
150.60450182399376
20
-121.71139067682462
30
0
10
151.79140673122032
20
-121.71139067682461
30
0
0
SPLINE
5
454
100
AcDbEntity
8
0
100
AcDbSpline
70
0
71
2
72
6
73
3
74
0
42
0.000000001
43
0.0000000001
44
0.0000000001
40
0
40
0
40
0
40
1
40
1
40
1
10
151.79140673122032
20
-121.71139067682461
30
0
10
152.60995970210655
20
-121.71139067682461
30
0
10
153.29890833339317
20
-122.06609732183651
30
0
0
SPLINE
5
455
100
AcDbEntity
8
0
100
AcDbSpline
70
0
71
2
72
6
73
3
74
0
42
0.000000001
43
0.0000000001
44
0.0000000001
40
0
40
0
40
0
40
1
40
1
40
1
10
153.29890833339317
20
-122.06609732183651
30
0
10
153.98785696467979
20
-122.41398281130031
30
0
10
154.34938536128624
20
-123.02107697996334
30
0
0
SPLINE
5
456
100
AcDbEntity
8
0
100
AcDbSpline
70
0
71
2
72
6
73
3
74
0
42
0.000000001
43
0.0000000001
44
0.0000000001
40
0
40
0
40
0
40
1
40
1
40
1
10
154.34938536128624
20
-123.02107697996334
30
0
10
154.71773729762657
20
-123.62817055257992
30
0
10
154.71773729762657
20
-124.31029922041134
30
0
0
SPLINE
5
457
100
AcDbEntity
8
0
100
AcDbSpline
70
0
71
2
72
6
73
3
74
0
42
0.000000001
43
0.0000000001
44
0.0000000001
40
0
40
0
40
0
40
1
40
1
40
1
10
154.71773729762657
20
-124.31029922041134
30
0
10
154.71773729762657
20
-124.95832091840938
30
0
10
154.36985121211632
20
-125.49038058790401
30
0
0
SPLINE
5
458
100
AcDbEntity
8
0
100
AcDbSpline
70
0
71
2
72
6
73
3
74
0
42
0.000000001
43
0.0000000001
44
0.0000000001
40
0
40
0
40
0
40
1
40
1
40
1
10
154.36985121211632
20
-125.49038058790401
30
0
10
154.02196512660606
20
-126.02244085344509
30
0
10
153.33983526668175
20
-126.33621996912197
30
0
0
SPLINE
5
459
100
AcDbEntity
8
0
100
AcDbSpline
70
0
71
2
72
6
73
3
74
0
42
0.000000001
43
0.0000000001
44
0.0000000001
40
0
40
0
40
0
40
1
40
1
40
1
10
153.33983526668175
20
-126.33621996912197
30
0
10
154.22660456142052
20
-126.54085821184353
30
0
10
154.71773729762657
20
-127.18887990984157
30
0
0
SPLINE
5
460
100
AcDbEntity
8
0
100
AcDbSpline
70
0
71
2
72
6
73
3
74
0
42
0.000000001
43
0.0000000001
44
0.0000000001
40
0
40
0
40
0
40
1
40
1
40
1
10
154.71773729762657
20
-127.18887990984157
30
0
10
155.20887003383262
20
-127.83008045229153
30
0
10
155.20887003383262
20
-128.79870242151455
30
0
0
SPLINE
5
461
100
AcDbEntity
8
0
100
AcDbSpline
70
0
71
2
72
6
73
3
74
0
42
0.000000001
43
0.0000000001
44
0.0000000001
40
0
40
0
40
0
40
1
40
1
40
1
10
155.20887003383262
20
-128.79870242151455
30
0
10
155.20887003383262
20
-130.10838932069973
30
0
10
154.2538891836129
20
-131.02244085344509
30
0
0
SPLINE
5
462
100
AcDbEntity
8
0
100
AcDbSpline
70
0
71
2
72
6
73
3
74
0
42
0.000000001
43
0.0000000001
44
0.0000000001
40
0
40
0
40
0
40
1
40
1
40
1
10
154.2538891836129
20
-131.02244085344509
30
0
10
153.29890833339317
20
-131.92967123064236
30
0
10
151.83915482005699
20
-131.92967123064236
30
0
0
SPLINE
5
463
100
AcDbEntity
8
0
100
AcDbSpline
70
0
71
2
72
6
73
3
74
0
42
0.000000001
43
0.0000000001
44
0.0000000001
40
0
40
0
40
0
40
1
40
1
40
1
10
151.83915482005699
20
-131.92967123064236
30
0
10
150.52264795741661
20
-131.92967123064236
30
0
10
149.64952335795982
20
-131.14522403749663
30
0
0
SPLINE
5
464
100
AcDbEntity
8
0
100
AcDbSpline
70
0
71
2
72
6
73
3
74
0
42
0.000000001
43
0.0000000001
44
0.0000000001
40
0
40
0
40
0
40
1
40
1
40
1
10
149.64952335795982
20
-131.14522403749663
30
0
10
148.78321991405113
20
-130.36077565225798
30
0
10
148.66043672999962
20
-129.11248153719146
30
0
0
LINE
5
465
100
AcDbEntity
8
0
100
AcDbLine
10
172.69180880031215
20
-131.75231761011318
30
0
11
171.46398172816859
21
-131.75231761011318
31
0
0
LINE
5
466
100
AcDbEntity
8
0
100
AcDbLine
10
171.46398172816859
20
-131.75231761011318
30
0
11
171.46398172816859
21
-123.92830676111416
31
0
0
SPLINE
5
467
100
AcDbEntity
8
0
100
AcDbSpline
70
0
71
2
72
6
73
3
74
0
42
0.000000001
43
0.0000000001
44
0.0000000001
40
0
40
0
40
0
40
1
40
1
40
1
10
171.46398172816859
20
-123.92830676111416
30
0
10
171.02059469661341
20
-124.35122615369991
30
0
10
170.29754267177211
20
-124.77414554628567
30
0
0
SPLINE
5
468
100
AcDbEntity
8
0
100
AcDbSpline
70
0
71
2
72
6
73
3
74
0
42
0.000000001
43
0.0000000001
44
0.0000000001
40
0
40
0
40
0
40
1
40
1
40
1
10
170.29754267177211
20
-124.77414554628567
30
0
10
169.58130464992152
20
-125.19706493887142
30
0
10
169.00831804713832
20
-125.40852493318752
30
0
0
LINE
5
469
100
AcDbEntity
8
0
100
AcDbLine
10
169.00831804713832
20
-125.40852493318752
30
0
11
169.00831804713832
21
-124.2216218141003
31
0
0
SPLINE
5
470
100
AcDbEntity
8
0
100
AcDbSpline
70
0
71
2
72
6
73
3
74
0
42
0.000000001
43
0.0000000001
44
0.0000000001
40
0
40
0
40
0
40
1
40
1
40
1
10
169.00831804713832
20
-124.2216218141003
30
0
10
170.03832922420131
20
-123.73731082948879
30
0
10
170.80913649043666
20
-123.04836100610927
30
0
0
SPLINE
5
471
100
AcDbEntity
8
0
100
AcDbSpline
70
0
71
2
72
6
73
3
74
0
42
0.000000001
43
0.0000000001
44
0.0000000001
40
0
40
0
40
0
40
1
40
1
40
1
10
170.80913649043666
20
-123.04836100610927
30
0
10
171.57993898830043
20
-122.35941177877621
30
0
10
171.9005404516183
20
-121.71138948473171
30
0
0
LINE
5
472
100
AcDbEntity
8
0
100
AcDbLine
10
171.9005404516183
20
-121.71138948473171
30
0
11
172.69180880031215
21
-121.71138948473171
31
0
0
LINE
5
473
100
AcDbEntity
8
0
100
AcDbLine
10
172.69180880031215
20
-121.71138948473171
30
0
11
172.69180880031215
21
-131.75231761011318
31
0
0
LINE
5
474
100
AcDbEntity
8
0
100
AcDbLine
10
179.77230177363978
20
-131.75231761011315
30
0
11
179.77230177363978
21
-129.35804790529443
31
0
0
LINE
5
475
100
AcDbEntity
8
0
100
AcDbLine
10
179.77230177363978
20
-129.35804790529443
30
0
11
175.4339705511056
21
-129.35804790529443
31
0
0
LINE
5
476
100
AcDbEntity
8
0
100
AcDbLine
10
175.4339705511056
20
-129.35804790529446
30
0
11
175.4339705511056
21
-128.23253578218655
31
0
0
LINE
5
477
100
AcDbEntity
8
0
100
AcDbLine
10
175.4339705511056
20
-128.23253578218655
30
0
11
179.99740705928431
21
-121.75231761011318
31
0
0
LINE
5
478
100
AcDbEntity
8
0
100
AcDbLine
10
179.99740705928431
20
-121.75231761011317
30
0
11
181.00013361415492
21
-121.75231761011317
31
0
0
LINE
5
479
100
AcDbEntity
8
0
100
AcDbLine
10
181.00013361415492
20
-121.75231761011317
30
0
11
181.00013361415492
21
-128.23253578218652
31
0
0
LINE
5
480
100
AcDbEntity
8
0
100
AcDbLine
10
181.00013361415492
20
-128.23253578218652
30
0
11
182.35074625453578
21
-128.23253578218652
31
0
0
LINE
5
481
100
AcDbEntity
8
0
100
AcDbLine
10
182.35074625453578
20
-128.23253578218652
30
0
11
182.35074625453578
21
-129.35804790529443
31
0
0
LINE
5
482
100
AcDbEntity
8
0
100
AcDbLine
10
182.35074625453578
20
-129.35804790529443
30
0
11
181.00013361415492
21
-129.35804790529443
31
0
0
LINE
5
483
100
AcDbEntity
8
0
100
AcDbLine
10
181.00013361415492
20
-129.35804790529443
30
0
11
181.00013361415492
21
-131.75231761011315
31
0
0
LINE
5
484
100
AcDbEntity
8
0
100
AcDbLine
10
181.00013361415492
20
-131.75231761011315
30
0
11
179.77230177363978
21
-131.75231761011315
31
0
0
LINE
5
485
100
AcDbEntity
8
0
100
AcDbLine
10
179.77230177363978
20
-128.23253578218652
30
0
11
179.77230177363978
21
-123.72366792234614
31
0
0
LINE
5
486
100
AcDbEntity
8
0
100
AcDbLine
10
179.77230177363978
20
-123.72366792234614
30
0
11
176.64133654079066
21
-128.23253578218652
31
0
0
LINE
5
487
100
AcDbEntity
8
0
100
AcDbLine
10
176.64133654079066
20
-128.23253578218655
30
0
11
179.77230177363978
21
-128.23253578218655
31
0
0
LINE
5
488
100
AcDbEntity
8
0
100
AcDbLine
10
195.99331484279261
20
-131.75231761011315
30
0
11
194.7654782339059
21
-131.75231761011315
31
0
0
LINE
5
489
100
AcDbEntity
8
0
100
AcDbLine
10
194.7654782339059
20
-131.75231761011315
30
0
11
194.7654782339059
21
-123.92830676111414
31
0
0
SPLINE
5
490
100
AcDbEntity
8
0
100
AcDbSpline
70
0
71
2
72
6
73
3
74
0
42
0.000000001
43
0.0000000001
44
0.0000000001
40
0
40
0
40
0
40
1
40
1
40
1
10
194.7654782339059
20
-123.92830676111414
30
0
10
194.3220959707223
20
-124.3512261536999
30
0
10
193.59903917750941
20
-124.77414554628565
30
0
0
SPLINE
5
491
100
AcDbEntity
8
0
100
AcDbSpline
70
0
71
2
72
6
73
3
74
0
42
0.000000001
43
0.0000000001
44
0.0000000001
40
0
40
0
40
0
40
1
40
1
40
1
10
193.59903917750941
20
-124.77414554628565
30
0
10
192.88280592403041
20
-125.19706493887141
30
0
10
192.3098193212472
20
-125.40852493318751
30
0
0
LINE
5
492
100
AcDbEntity
8
0
100
AcDbLine
10
192.3098193212472
20
-125.40852493318751
30
0
11
192.3098193212472
21
-124.22162181410029
31
0
0
SPLINE
5
493
100
AcDbEntity
8
0
100
AcDbSpline
70
0
71
2
72
6
73
3
74
0
42
0.000000001
43
0.0000000001
44
0.0000000001
40
0
40
0
40
0
40
1
40
1
40
1
10
192.3098193212472
20
-124.22162181410029
30
0
10
193.33983049831019
20
-123.73731082948878
30
0
10
194.11063776454554
20
-123.04836100610926
30
0
0
SPLINE
5
494
100
AcDbEntity
8
0
100
AcDbSpline
70
0
71
2
72
6
73
3
74
0
42
0.000000001
43
0.0000000001
44
0.0000000001
40
0
40
0
40
0
40
1
40
1
40
1
10
194.11063776454554
20
-123.04836100610926
30
0
10
194.8814450307809
20
-122.35941177877619
30
0
10
195.20204172572718
20
-121.7113894847317
30
0
0
LINE
5
495
100
AcDbEntity
8
0
100
AcDbLine
10
195.20204172572718
20
-121.7113894847317
30
0
11
195.99331484279261
21
-121.7113894847317
31
0
0
LINE
5
496
100
AcDbEntity
8
0
100
AcDbLine
10
195.99331484279261
20
-121.7113894847317
30
0
11
195.99331484279261
21
-131.75231761011315
31
0
0
LINE
5
497
100
AcDbEntity
8
0
100
AcDbLine
10
199.13792238673793
20
-129.13294500383569
30
0
11
200.42714701137172
21
-129.02380413088036
31
0
0
SPLINE
5
498
100
AcDbEntity
8
0
100
AcDbSpline
70
0
71
2
72
6
73
3
74
0
42
0.000000001
43
0.0000000001
44
0.0000000001
40
0
40
0
40
0
40
1
40
1
40
1
10
200.42714701137172
20
-129.02380413088036
30
0
10
200.5703984304391
20
-129.965141477911
30
0
10
201.08881578883754
20
-130.44263071092797
30
0
0
SPLINE
5
499
100
AcDbEntity
8
0
100
AcDbSpline
70
0
71
2
72
6
73
3
74
0
42
0.000000001
43
0.0000000001
44
0.0000000001
40
0
40
0
40
0
40
1
40
1
40
1
10
201.08881578883754
20
-130.44263071092797
30
0
10
201.61405191859828
20
-130.91329998048974
30
0
10
202.35074625453578
20
-130.91329998048974
30
0
0
SPLINE
5
500
100
AcDbEntity
8
0
100
AcDbSpline
70
0
71
2
72
6
73
3
74
0
42
0.000000001
43
0.0000000001
44
0.0000000001
40
0
40
0
40
0
40
1
40
1
40
1
10
202.35074625453578
20
-130.91329998048974
30
0
10
203.23752031764613
20
-130.91329998048974
30
0
10
203.85142908534633
20
-130.24481362375451
30
0
0
SPLINE
5
501
100
AcDbEntity
8
0
100
AcDbSpline
70
0
71
2
72
6
73
3
74
0
42
0.000000001
43
0.0000000001
44
0.0000000001
40
0
40
0
40
0
40
1
40
1
40
1
10
203.85142908534633
20
-130.24481362375451
30
0
10
204.46534738978968
20
-129.57632845911218
30
0
10
204.46534738978968
20
-128.471280398695
30
0
0
SPLINE
5
502
100
AcDbEntity
8
0
100
AcDbSpline
70
0
71
2
72
6
73
3
74
0
42
0.000000001
43
0.0000000001
44
0.0000000001
40
0
40
0
40
0
40
1
40
1
40
1
10
204.46534738978968
20
-128.471280398695
30
0
10
204.46534738978968
20
-127.42080277475549
30
0
10
203.8718949361764
20
-126.81370920213891
30
0
0
SPLINE
5
503
100
AcDbEntity
8
0
100
AcDbSpline
70
0
71
2
72
6
73
3
74
0
42
0.000000001
43
0.0000000001
44
0.0000000001
40
0
40
0
40
0
40
1
40
1
40
1
10
203.8718949361764
20
-126.81370920213891
30
0
10
203.28526125392543
20
-126.20661443742944
30
0
10
202.33028994044886
20
-126.20661443742945
30
0
0
SPLINE
5
504
100
AcDbEntity
8
0
100
AcDbSpline
70
0
71
2
72
6
73
3
74
0
42
0.000000001
43
0.0000000001
44
0.0000000001
40
0
40
0
40
0
40
1
40
1
40
1
10
202.33028994044886
20
-126.20661443742945
30
0
10
201.73683748683558
20
-126.20661443742945
30
0
10
201.25934229335414
20
-126.47946542772486
30
0
0
SPLINE
5
505
100
AcDbEntity
8
0
100
AcDbSpline
70
0
71
2
72
6
73
3
74
0
42
0.000000001
43
0.0000000001
44
0.0000000001
40
0
40
0
40
0
40
1
40
1
40
1
10
201.25934229335414
20
-126.47946542772486
30
0
10
200.78185663661586
20
-126.74549585851862
30
0
10
200.50900087794886
20
-127.17523640665247
30
0
0
LINE
5
506
100
AcDbEntity
8
0
100
AcDbLine
10
200.50900087794886
20
-127.17523640665247
30
0
11
199.35620890102015
21
-127.02516860040858
31
0
0
LINE
5
507
100
AcDbEntity
8
0
100
AcDbLine
10
199.35620890102015
20
-127.02516860040858
30
0
11
200.32482729396449
21
-121.88874191316798
31
0
0
LINE
5
508
100
AcDbEntity
8
0
100
AcDbLine
10
200.32482729396449
20
-121.88874191316798
30
0
11
205.29754267177211
21
-121.88874191316798
31
0
0
LINE
5
509
100
AcDbEntity
8
0
100
AcDbLine
10
205.29754267177211
20
-121.88874191316796
30
0
11
205.29754267177211
21
-123.06200272115899
31
0
0
LINE
5
510
100
AcDbEntity
8
0
100
AcDbLine
10
205.29754267177211
20
-123.06200272115899
30
0
11
201.3070927663766
21
-123.06200272115899
31
0
0
LINE
5
511
100
AcDbEntity
8
0
100
AcDbLine
10
201.3070927663766
20
-123.062002721159
30
0
11
200.76820955714808
21
-125.74958807501032
31
0
0
SPLINE
5
512
100
AcDbEntity
8
0
100
AcDbSpline
70
0
71
2
72
6
73
3
74
0
42
0.000000001
43
0.0000000001
44
0.0000000001
40
0
40
0
40
0
40
1
40
1
40
1
10
200.76820955714808
20
-125.74958807501032
30
0
10
201.66862116298304
20
-125.12203043970301
30
0
10
202.65770540675746
20
-125.122030439703
30
0
0
SPLINE
5
513
100
AcDbEntity
8
0
100
AcDbSpline
70
0
71
2
72
6
73
3
74
0
42
0.000000001
43
0.0000000001
44
0.0000000001
40
0
40
0
40
0
40
1
40
1
40
1
10
202.65770540675746
20
-125.122030439703
30
0
10
203.96739588222133
20
-125.122030439703
30
0
10
204.86780748805629
20
-126.02926081690026
30
0
0
SPLINE
5
514
100
AcDbEntity
8
0
100
AcDbSpline
70
0
71
2
72
6
73
3
74
0
42
0.000000001
43
0.0000000001
44
0.0000000001
40
0
40
0
40
0
40
1
40
1
40
1
10
204.86780748805629
20
-126.02926081690026
30
0
10
205.76820955714808
20
-126.93649179014398
30
0
10
205.76820955714808
20
-128.36214012178613
30
0
0
SPLINE
5
515
100
AcDbEntity
8
0
100
AcDbSpline
70
0
71
2
72
6
73
3
74
0
42
0.000000001
43
0.0000000001
44
0.0000000001
40
0
40
0
40
0
40
1
40
1
40
1
10
205.76820955714808
20
-128.36214012178613
30
0
10
205.76820955714808
20
-129.71957510980798
30
0
10
204.97694597682582
20
-130.70866173776818
30
0
0
SPLINE
5
516
100
AcDbEntity
8
0
100
AcDbSpline
70
0
71
2
72
6
73
3
74
0
42
0.000000001
43
0.0000000001
44
0.0000000001
40
0
40
0
40
0
40
1
40
1
40
1
10
204.97694597682582
20
-130.70866173776818
30
0
10
204.01514635524379
20
-131.92285007509423
30
0
10
202.35074625453578
20
-131.92285007509423
30
0
0
SPLINE
5
517
100
AcDbEntity
8
0
100
AcDbSpline
70
0
71
2
72
6
73
3
74
0
42
0.000000001
43
0.0000000001
44
0.0000000001
40
0
40
0
40
0
40
1
40
1
40
1
10
202.35074625453578
20
-131.92285007509423
30
0
10
200.98649607143031
20
-131.92285007509423
30
0
10
200.12018785915004
20
-131.15886634859277
30
0
0
SPLINE
5
518
100
AcDbEntity
8
0
100
AcDbSpline
70
0
71
2
72
6
73
3
74
0
42
0.000000001
43
0.0000000001
44
0.0000000001
40
0
40
0
40
0
40
1
40
1
40
1
10
200.12018785915004
20
-131.15886634859277
30
0
10
199.26070795497523
20
-130.3948826220913
30
0
10
199.13792238673793
20
-129.13294500383569
30
0
0
ENDSEC
0
SECTION
2
OBJECTS
0
DICTIONARY
5
C
100
AcDbDictionary
3
ACAD_GROUP
350
D
3
ACAD_MLINESTYLE
350
17
0
DICTIONARY
5
D
100
AcDbDictionary
0
DICTIONARY
5
1A
330
C
100
AcDbDictionary
0
DICTIONARY
5
17
100
AcDbDictionary
0
ENDSEC
0
EOF
